<?xml version="1.0" standalone="yes"?>
<svg xmlns="http://www.w3.org/2000/svg" width="2167" height="771">
<path style="fill:#F8F9FA; stroke:none;" d="M0 0L0 771L2167 771L2167 0L0 0z"/>
<path style="fill:#ceab5d; stroke:none;" d="M372 256C374.744 263.314 375.976 271.408 377.873 279C382.024 295.606 385.823 312.318 389.651 329C400.501 376.278 411.059 423.649 421.576 471C425.95 490.696 430.463 510.368 435.116 530C436.885 537.464 437.282 548.776 442.558 554.671C449.006 561.876 461.101 561.999 470 562L532 562L595 562C603.696 561.997 616.737 562.042 623.786 556.2C629.17 551.738 629.599 542.401 631.116 536C635.132 519.056 638.689 502.007 642.424 485C652.234 440.341 661.337 395.492 671.884 351C677.419 327.653 685.801 303.759 689 280C690.459 284.935 689.687 289.923 690.17 295C692.095 315.229 690.925 335.767 690.039 356C688.31 395.5 690 435.458 690 475C690 492.669 690.894 510.537 693.754 528C695.172 536.661 696.689 546.154 700.825 554C702.437 557.058 704.643 560.141 708.004 561.397C711.564 562.727 716.262 562 720 562L743 562L849 562C863.482 562 880.147 565.345 888.004 550C893.016 540.21 894.014 527.762 895.166 517C898.335 487.395 894.355 457.562 894.004 428C893.183 358.996 891.675 289.998 889.985 221C889.333 194.349 888 167.701 888 141C888 110.346 886.002 79.6959 886 49C886 43.9269 885.26 39.0383 885.039 34C884.739 27.1313 886.145 18.6682 880.722 13.2786C875.561 8.14868 865.621 10 859 10C839.616 10 820.319 10.1147 801 10.9606C772.384 12.2137 743.616 9.78632 715 11.0394C689.044 12.176 663.029 12 637 12C620.269 12 604.642 13.241 588 11C587.28 20.0453 584.778 29.1064 583 38L573.4 86C564.404 130.97 555.793 176.029 546.8 221C541.836 245.824 535.242 270.899 532 296C527.516 282.757 526.058 267.758 523.576 254C519.419 230.959 514.701 208.012 510.389 185C502.949 145.291 494.829 105.709 487.389 66C484.217 49.0702 480.206 32.0822 478 15C448.169 15 418.727 12.341 389 11.0394C346.433 9.17548 303.648 10 261 10L208 10C201.189 10.0004 190.693 9.89343 185.653 15.4189C183.004 18.3232 183.02 22.3147 183.001 26L183 47L183 135L183 446L183 526L183 546C183.001 549.164 182.494 553.071 184.603 555.721C186.871 558.57 190.68 558.791 194 559.271C202.892 560.556 212.03 560 221 560C256.31 560 291.63 559 327 559L355 559C359.457 558.993 364.258 559.199 366.896 554.891C369.059 551.359 368.044 546.907 368.004 543C367.908 533.669 368 524.332 368 515L368 410C368 373.353 368.437 336.589 370.039 300C370.679 285.389 371.998 270.631 372 256M1183 367C1209.97 367 1237.12 366.752 1264 364.91C1279.24 363.867 1294.73 362.186 1310 362.004C1323.57 361.842 1347.25 368.389 1357.61 356.812C1363.44 350.296 1363 340.137 1363 332L1363 282L1363 231C1363 225.452 1364.91 215.956 1359.77 212.225C1355.45 209.087 1349.12 208.583 1344 207.87C1332.71 206.296 1321.39 206 1310 206C1267.59 206 1225.31 210.184 1183 212C1180.97 195.927 1183 180.09 1183 164C1247.25 164 1312.02 165.05 1376 160L1376 57C1376 45.3101 1379.49 25.8652 1371.36 16.2137C1367.51 11.6427 1361.5 11.2634 1356 10.5803C1351.6 10.0333 1347.4 10.9438 1343 10.9962C1333 11.1151 1323 11 1313 11C1256.71 11 1200.28 8.49634 1144 10.9606C1128.71 11.6302 1113.31 10.8218 1098 11.0038C1078.37 11.2372 1058.71 12.2305 1039 11.9962C1027 11.8535 1015.07 10.719 1003 11.0146C992.32 11.2762 980.328 11.8337 970 14.7462C965.49 16.018 960.218 17.8787 959.228 23.0401C956.727 36.0927 959 51.7023 959 65L959 151L959 419C959 448.575 960.254 478.456 958.961 508C958.249 524.248 956.734 545.563 966.529 559.852C969.498 564.182 975.406 563 980 563L1014 563C1056.06 563 1097.95 562 1140 562C1149.99 562 1160.01 562.246 1170 561.985C1174.63 561.864 1180.37 560.937 1183.26 556.867C1186.03 552.966 1185.94 545.632 1186 541C1186.13 529.337 1186 517.664 1186 506C1186 459.682 1183.03 413.296 1183 367M1611 557C1608.8 539.604 1611.72 522.439 1610.96 505C1607.97 436.821 1609 368.327 1609 300C1581.59 305.088 1549.89 302.927 1523 295.846C1516.22 294.06 1507.71 292.84 1502.02 288.501C1498.73 285.992 1496.76 282.765 1499.45 279.043C1503.35 273.664 1510.96 271.281 1517 269.344C1532.76 264.294 1549.72 262.317 1566 259.586C1579.27 257.361 1592.84 256.05 1606 253.336C1653.18 243.608 1699.5 229.38 1747 221.414L1799 212.753C1805.21 211.718 1813.95 208.366 1819 213C1801.68 220.211 1785.86 231.696 1770 241.576C1751.4 253.163 1732.15 262.825 1712 271.421C1702.94 275.287 1693.61 279.724 1684 282C1690.56 305.969 1703.36 329.197 1713.15 352C1731.93 395.752 1750.77 439.439 1767.58 484C1774.3 501.837 1780.29 519.922 1786.33 538C1787.91 542.702 1789.74 547.305 1791.33 552C1792.1 554.253 1792.68 557.457 1794.7 558.972C1797.05 560.73 1801.26 560 1804 560C1810.93 560 1818.11 559.472 1825 560.286C1836.28 561.617 1847.68 561.314 1859 562.089C1881.65 563.64 1905.43 564.424 1928 561.424C1937.04 560.223 1946.24 559.518 1955 556.794C1958.74 555.632 1963.35 554.062 1964.57 549.906C1966.81 542.244 1960.1 533.383 1956.78 527C1953.94 521.521 1952.48 515.515 1949.73 510C1944.65 499.816 1938.72 490.01 1933.31 480C1910.2 437.281 1886.84 394.698 1863.69 352C1852.18 330.765 1839.22 309.882 1829 288C1842.84 284.012 1856.45 274.372 1868 265.989C1893.1 247.768 1914.84 223.502 1925.56 194C1945.29 139.756 1924.24 72.7398 1876 41.3449C1832.86 13.2714 1779.54 13 1730 13L1547 13L1471 13C1458.76 13 1443.56 11.1863 1432 15.9305C1424.11 19.1711 1425 25.6667 1425 33L1425 72L1425 247L1425 479L1425 537C1425 542.162 1422.79 554.09 1426.6 558.034C1431.45 563.038 1437.84 562.163 1444 562.015C1453.99 561.774 1464.01 562 1474 562L1545 562C1556.92 562 1569.11 562.725 1581 561.911C1591.27 561.208 1600.94 558.003 1611 557z"/>
<path style="fill:#F8F9FA; stroke:none;" d="M1640 121.443C1600.84 126.093 1585.61 180.553 1612.17 207.907C1622.62 218.664 1638.49 222.385 1653 220.826C1658.46 220.24 1664.28 218.317 1669 215.525C1696.95 198.987 1695.15 164.68 1677.84 141C1669.55 129.654 1654.75 119.691 1640 121.443z"/>
<path style="fill:#ceab5d; stroke:none;" d="M1671 405C1667.72 413.746 1666.61 423.854 1664.58 433C1660.72 450.381 1656.33 467.647 1652.35 485C1648.81 500.418 1644.84 515.854 1640.28 531C1637.66 539.691 1634.05 548.152 1632 557C1654.64 557 1677.36 556.46 1700 557.015C1720.68 557.521 1741.27 559 1762 559C1756.95 547.063 1746.64 536.047 1739.68 525C1725.49 502.49 1712.12 479.322 1699.31 456C1694.02 446.38 1688.2 436.913 1683.49 427C1679.88 419.425 1677.66 410.518 1671 405M1463 619C1455.61 616.794 1447.66 617 1440 617C1436.98 617 1433.03 616.393 1430.33 618.028C1426.76 620.191 1424.71 625.506 1422.72 629C1421.14 631.774 1415.82 638.051 1418.08 641.397C1420.01 644.253 1427.07 643 1430 643C1433.8 643 1438.38 643.643 1442 642.258C1445.97 640.738 1448.58 637.078 1451.28 634C1455.47 629.235 1460.34 624.817 1463 619M627 659.71C611.611 659.915 596.745 664.086 586.185 676.004C568.338 696.147 573.046 736.346 594 752.471C603.344 759.661 616.563 761.266 628 760.985C639.276 760.709 652.401 757.639 660.816 749.674C680.654 730.896 681.129 687.524 659.91 669.518C650.905 661.876 638.492 659.557 627 659.71M846 659.428C839.199 660.402 832.159 661.822 826 664.982C811.769 672.282 802.301 693.556 812.649 707.985C818.098 715.584 828.281 719.035 837 721.116C842.889 722.521 849.566 723.141 854.981 725.999C857.132 727.135 859.971 729.086 859.248 731.931C858.302 735.659 853.078 736.555 850.104 734.968C847.183 733.409 846.027 729.875 842.896 728.603C835.95 725.784 826.217 728.91 819 728.996C816.313 729.028 811.866 728.204 809.607 730.028C807.568 731.674 808.391 734.844 808.901 737C810.205 742.514 812.845 747.578 817.174 751.319C830.081 762.477 851.205 762.239 867 759.565C877.074 757.859 887.307 753.639 893.351 745C904.81 728.621 896.386 707.189 879 700.208C870.956 696.977 862.276 695.585 854.001 693.086C852.181 692.537 847.262 691.195 847.77 688.453C848.28 685.697 852.913 685.268 854.911 686.117C857.255 687.114 858.682 689.462 861.089 690.397C867.375 692.838 877.306 691.003 884 691C886.749 690.999 890.362 691.503 892.812 689.972C899.66 685.696 891.377 673.685 887.907 670.015C877.773 659.301 860.004 657.422 846 659.428M1141 729C1141.6 758.066 1172.6 763.419 1196 760.13C1206.57 758.645 1217.56 755.532 1224.66 746.985C1232.75 737.242 1233.74 719.06 1225.47 709.093C1220.66 703.305 1212.11 699.787 1205 697.885C1199.01 696.28 1192.94 694.887 1187 693.086C1185.07 692.5 1181.27 691.52 1180.78 689.127C1180.12 685.844 1185.95 685.444 1187.83 686.268C1190.14 687.279 1191.63 689.506 1194.04 690.4C1200.45 692.778 1210.21 691.003 1217 691C1220.9 690.998 1226.42 691.755 1227.68 686.941C1230.61 675.725 1217.16 664.755 1208 661.749C1188.73 655.427 1155.58 657.597 1145.28 678C1140.58 687.297 1139.75 701.79 1147.21 709.907C1153.12 716.33 1162.7 719.592 1171 721.5C1176.52 722.768 1183.03 723.102 1187.98 726.089C1190.3 727.486 1192.88 729.976 1191.25 732.853C1189.67 735.631 1185.8 736.394 1183.1 734.968C1180.18 733.42 1179.03 729.875 1175.9 728.603C1172.98 727.42 1169.08 727.986 1166 728.001C1157.67 728.041 1149.38 729 1141 729M1603 730C1604.52 737.817 1606.08 745.081 1612.09 750.815C1616.74 755.249 1622.84 757.618 1629 759.101C1646.75 763.378 1675.02 762.509 1687.47 746.96C1693.35 739.618 1693.94 729.008 1692.81 720C1690.79 703.787 1672.27 698.946 1659 695.627C1652.64 694.037 1645.18 693.358 1642 687C1644.48 686.442 1647.41 685.233 1649.91 686.208C1652.61 687.258 1654.13 689.925 1657.04 690.682C1663.06 692.246 1670.8 691 1677 691C1680.39 691 1685.72 691.955 1688.68 689.972C1691.61 688.016 1690.88 683.874 1690.06 681C1688.13 674.247 1682.22 667.196 1676 663.996C1658.79 655.145 1628.54 656.609 1614.02 670.105C1603.55 679.83 1599.38 699.611 1610.33 710.674C1617.37 717.789 1628.53 720.478 1638 722.4C1642.62 723.336 1647.99 724.22 1651.93 726.995C1654.24 728.628 1655.68 731.118 1653.51 733.567C1647.49 740.34 1642.9 729.943 1637.9 728.434C1631.73 726.575 1624.24 728.483 1618 728.911C1612.92 729.259 1607.93 728.542 1603 730M1706 730C1707.52 737.817 1709.08 745.081 1715.09 750.815C1719.97 755.463 1726.51 757.924 1733 759.332C1750.64 763.158 1778.14 762.36 1790.47 746.96C1796.35 739.618 1796.94 729.008 1795.81 720C1793.79 703.787 1775.27 698.946 1762 695.627C1755.64 694.037 1748.18 693.359 1745 687C1747.48 686.442 1750.41 685.233 1752.91 686.208C1755.61 687.258 1757.13 689.925 1760.04 690.682C1766.06 692.246 1773.8 691 1780 691C1783.39 691 1788.72 691.955 1791.68 689.972C1794.61 688.016 1793.88 683.874 1793.06 681C1791.13 674.247 1785.22 667.196 1779 663.996C1761.79 655.145 1731.54 656.609 1717.02 670.105C1706.55 679.83 1702.38 699.611 1713.33 710.674C1720.37 717.789 1731.53 720.478 1741 722.4C1745.62 723.336 1750.99 724.22 1754.93 726.995C1757.24 728.628 1758.68 731.118 1756.51 733.567C1750.49 740.34 1745.9 729.943 1740.9 728.434C1734.73 726.575 1727.24 728.483 1721 728.911C1715.92 729.259 1710.93 728.542 1706 730M2057 729C2057.24 758.182 2088.73 763.401 2112 760.13C2122.08 758.713 2132.75 755.855 2139.79 747.96C2148.24 738.475 2149.97 720.385 2142.06 710.09C2137.16 703.706 2128.6 699.919 2121 697.885C2115 696.28 2108.91 695.019 2103 693.111C2101.07 692.489 2097.27 691.526 2096.78 689.127C2096.13 685.878 2101.91 685.42 2103.79 686.258C2106.2 687.33 2107.47 689.788 2110.1 690.567C2117.58 692.779 2128.22 691.142 2136 690.995C2139.3 690.933 2142.71 690.684 2143.68 686.941C2146.64 675.533 2132.28 664.207 2123 661.44C2103.73 655.696 2071.35 657.777 2061 678C2055.99 687.779 2056.05 702.842 2064.1 710.895C2070.15 716.94 2079.77 720.179 2088 721.739C2093.18 722.721 2099.38 723.314 2103.98 726.089C2106.3 727.486 2108.88 729.976 2107.25 732.853C2105.67 735.635 2101.81 736.387 2099.1 734.968C2096.21 733.447 2094.98 730.039 2091.9 728.742C2086.19 726.343 2077.92 728.267 2072 728.83C2067.05 729.301 2061.97 729 2057 729M113 700C112.999 689.097 111.209 678.1 102.907 670.185C84.8895 653.009 45.0797 657.672 29.4676 676.039C12.5496 695.943 17.1743 736.365 37 752.671C51.6798 764.744 80.2815 764.237 96 754.532C100.338 751.853 104.069 748.244 106.895 744C109.883 739.514 116.263 727.791 112.933 722.318C111.335 719.692 107.639 720.019 105 720.001C98.6674 719.957 92.3328 720 86 720C83.3993 720 79.8299 719.42 77.419 720.603C73.3605 722.595 73.331 735.446 66.213 731.149C63.5544 729.544 62.1925 725.868 61.5293 723C59.7546 715.326 60.8009 705.672 62.1991 698C62.8719 694.308 65.5003 688.636 69.9853 688.636C76.5612 688.636 74.4195 698.233 79.2284 700.397C82.2633 701.762 86.7521 701 90 701C97.6985 701 105.405 701.41 113 700M244 661C241.329 671.323 242.996 680.57 243 691C243.006 705.704 242 720.355 242 735C242 740.389 239.695 754.241 244.589 757.972C247.104 759.89 252.04 759 255 759L282 759C289.66 759 297.343 759.173 305 758.985C307.823 758.916 312.116 758.976 314.397 757.012C317.186 754.608 316 748.272 316 745C316 741.465 317.299 734.549 314.972 731.603C313.348 729.548 309.359 729.739 307 729.424C298.817 728.333 290.246 729 282 729C282 712.616 283 696.342 283 680C283 675.726 284.843 666.02 280.682 663.318C278.208 661.711 274.798 662.111 272 661.831C262.686 660.899 253.091 662.682 244 661M966 661C962.57 668.127 964 677.239 964 685L964 735C964 740.332 963.929 745.669 964.004 751C964.035 753.237 963.79 756.393 965.742 757.972C969.496 761.009 980.363 759 985 759C1002.4 759 1019.67 758.744 1037 758L1037 730L1003 729C1004.29 712.697 1004 696.378 1004 680C1004 675.726 1005.84 666.021 1001.68 663.318C999.238 661.73 995.774 662.056 993 661.715C984.054 660.616 974.64 663.051 966 661M132 662C128.395 674.196 131 690.289 131 703C131 713.962 128.859 727.541 132.548 738C140.657 760.992 170.312 763.716 191 760.076C198.915 758.684 207.2 755.819 212.907 749.957C225.784 736.729 222 713.86 222 697L222 672C221.999 669.393 222.739 665.034 220.397 663.179C216.87 660.386 208.253 662 204 662L189 662.001C187.008 662.015 184.281 661.699 182.603 663.028C179.927 665.147 181 671.02 181 674L181 703C181 710.109 181.948 717.973 180.852 724.999C180.448 727.589 178.62 731.515 175.464 731.515C169.555 731.515 171 719.508 171 716C171 702.74 171.839 689.17 170.285 676C169.871 672.486 170.98 667.536 169.397 664.318C167.842 661.159 162.876 662.001 160 662C150.971 661.996 140.852 663.409 132 662M313 663L313 682C313.005 684.42 312.435 688.255 314.603 689.972C320.003 694.249 331.829 686.601 334.772 695.059C336.464 699.924 335.063 705.028 335.004 710C334.894 719.261 335.708 728.777 334.83 738C334.353 743.018 331.728 753.296 335.742 757.397C338.277 759.986 343.732 759 347 759L375 759L375 690L398 690L398 671C397.995 668.801 398.466 665.589 396.972 663.742C395.583 662.025 392.994 662.078 390.999 662.015C386.023 661.858 380.978 661.893 376 662.015C355.027 662.528 334.041 663 313 663M413 662L412 759L453 759L453 662C439.639 663.689 426.432 662 413 662M569 662C556.257 662 543.68 661.999 531 663C528.402 683.116 520.604 702.843 519 723C514.815 709.765 513.713 694.709 511.414 681C510.61 676.208 510.605 668.387 507.825 664.318C505.902 661.503 501.974 662.006 499 662L476 662C473.164 662.006 468.096 661.312 467.502 665.148C467.115 667.654 468.47 670.63 469.14 673L474 690C478.197 704.624 482.538 719.276 486.371 734C488.215 741.082 489.401 751.535 493.419 757.682C495.841 761.387 501.408 759.197 505 759.039C514.299 758.632 523.692 759.001 533 759C536.671 759 541.366 759.784 544.031 756.682C550.082 749.639 551.396 734.871 553.199 726C555.873 712.845 559.83 699.931 563.424 687C565.693 678.839 568.823 670.523 569 662M727 759L727 713C731.676 722.999 734.899 733.688 738.808 744C740.331 748.018 741.477 754.379 744.699 757.397C747.567 760.082 753.402 759 757 759C767.567 759 778.582 759.934 789 758L789 687L788.999 670C788.984 667.791 789.361 664.583 787.397 663.028C785.31 661.376 781.469 662.001 779 662C771.623 661.997 764.278 661.649 757 663L757 710C752.516 699.931 748.902 689.332 745.05 679C743.359 674.463 742.129 668.085 739.005 664.318C736.58 661.393 732.406 662.002 729 662L704 662C701.207 662 696.168 661.092 694.179 663.603C690.796 667.874 693 679.77 693 685C693 702.722 692 720.283 692 738C692 742.637 689.991 753.504 693.028 757.258C694.946 759.629 699.327 758.996 702 759L727 759M1296 663L1296 759L1325 759C1327.87 758.999 1332.91 759.813 1334.97 757.258C1336.62 755.216 1336 751.429 1336 749L1336 727C1348.21 727.396 1346.06 739.922 1347.8 749C1348.59 753.108 1349.17 758.043 1354.04 758.852C1361.95 760.163 1370.99 759.016 1379 759C1381.48 758.995 1385.47 759.549 1387.29 757.397C1389.52 754.764 1386.22 749.1 1386.04 746C1385.32 733.475 1386 715.439 1372 710C1376.12 707.184 1380.09 704.432 1382.63 699.999C1389.21 688.512 1385.58 671.141 1373 665.529C1362.92 661.035 1350.74 662 1340 662C1325.63 662 1310.15 660.373 1296 663M1497 662C1493.39 674.196 1496 690.289 1496 703C1496 713.962 1493.86 727.541 1497.55 738C1505.66 760.992 1535.31 763.716 1556 760.076C1564.42 758.595 1572.92 755.375 1578.81 748.96C1590.77 735.947 1587 713.226 1587 697L1587 672C1587 669.393 1587.74 665.034 1585.4 663.179C1581.87 660.386 1573.25 662 1569 662L1554 662.001C1552.01 662.015 1549.28 661.699 1547.6 663.028C1544.93 665.147 1546 671.02 1546 674L1546 703C1546 710.058 1547.04 718.049 1545.77 724.999C1545.31 727.496 1543.54 731.515 1540.45 731.515C1534.56 731.515 1536 719.496 1536 716C1536 702.652 1536.43 689.278 1535.17 676C1534.84 672.484 1535.99 667.552 1534.4 664.318C1532.84 661.159 1527.88 662.001 1525 662C1515.83 661.996 1506.08 663.014 1497 662M1812 759L1853 759L1853 662C1843.47 663.768 1834.52 662.047 1825 662.001C1822.1 661.987 1817.04 661.095 1814.6 663.028C1812.88 664.392 1813.01 667.03 1813.02 669.001C1813.05 674.115 1814.25 678.852 1813.58 684C1811.99 696.099 1813 708.805 1813 721C1813 733.717 1812 746.28 1812 759M1869 663L1869 682C1869.01 684.42 1868.44 688.255 1870.6 689.972C1876.1 694.328 1887.65 686.596 1890.85 695.059C1892.73 700.011 1891.26 704.956 1891.04 710C1890.62 719.625 1891.74 729.405 1890.83 739C1890.37 743.851 1887.85 753.417 1891.74 757.397C1894.28 759.986 1899.73 759 1903 759L1931 759L1931 690L1954 690L1954 671C1954 668.801 1954.47 665.589 1952.97 663.742C1951.58 662.025 1948.99 662.078 1947 662.015C1942.02 661.858 1936.98 661.893 1932 662.015C1911.03 662.528 1890.04 663 1869 663M1053 663C1053 686.005 1052.04 709.075 1052 732L1052 749C1052.01 751.415 1051.61 754.56 1053.03 756.682C1055.72 760.714 1064.84 759 1069 759C1083.06 759 1096.97 758 1111 758C1114.73 758 1123.36 759.976 1126.4 757.782C1128.15 756.514 1127.96 753.9 1128 751.996C1128.09 747.01 1128.09 741.99 1128 737.004C1127.96 735.034 1128.12 732.543 1126.4 731.179C1123.29 728.717 1115.72 729.835 1112 730.089C1104.95 730.572 1098.09 731 1091 731L1091 723C1098.97 723 1107.09 723.48 1115 722.424C1117.39 722.106 1121.31 722.496 1122.97 720.397C1125.21 717.567 1123.66 712.2 1123.29 709C1122.95 706.171 1123.92 701.024 1121.4 699.028C1119.31 697.376 1115.47 698.001 1113 698L1091 698C1091.03 694.878 1091.28 692.039 1092 689C1100.02 690.909 1108.8 690.017 1117 690C1119.95 689.994 1123.94 690.508 1125.82 687.682C1127.26 685.522 1126.99 682.466 1127 680L1127 663L1053 663M1404 663L1404 732L1404 750C1404 752.236 1403.53 755.508 1405.03 757.397C1407.66 760.716 1417.21 759 1421 759C1434.72 759 1448.31 757.999 1462 758C1465.79 758 1474.32 760.127 1477.4 757.806C1479.14 756.495 1478.96 753.928 1479 751.996C1479.09 747.009 1479.09 741.988 1479 737.001C1478.96 735.019 1479.14 732.406 1477.4 731.028C1474.53 728.757 1467.44 729.889 1464 730.039C1456.96 730.347 1450.08 731 1443 731L1443 723L1475 722L1475 707C1474.99 704.707 1475.35 701.533 1473.82 699.603C1471.97 697.261 1467.61 698.001 1465 698L1442 698L1443 689C1451.22 690.526 1459.67 690.017 1468 690C1470.95 689.994 1475.08 690.516 1476.97 687.682C1478.39 685.56 1477.99 682.415 1478 680L1478 663L1404 663M1969 663C1969 686.371 1968 709.688 1968 733L1968 750C1968.01 752.293 1967.65 755.467 1969.18 757.397C1971.71 760.593 1980.38 759 1984 759C1998.05 759 2011.98 758 2026 758C2029.92 758 2039.46 760.206 2042.4 757.382C2046.09 753.827 2044.09 741.776 2044 737.004C2043.96 735.034 2044.12 732.543 2042.4 731.179C2039.29 728.717 2031.72 729.835 2028 730.089C2020.95 730.572 2014.09 731 2007 731L2007 723C2014.97 723 2023.09 723.48 2031 722.424C2033.36 722.109 2037.34 722.503 2038.97 720.397C2040.97 717.81 2039.17 712.953 2039.04 710C2038.91 706.973 2040.12 701.188 2037.4 699.028C2035.12 697.228 2030.69 698 2028 698L2006 698C2006.9 694.959 2006.99 692.169 2007 689C2015.23 690.527 2023.66 690.004 2032 690C2034.62 689.999 2039.11 690.75 2040.97 688.397C2042.47 686.508 2042 683.236 2042 681L2042 663L1969 663z"/>
<path style="fill:#F8F9FA; stroke:none;" d="M1337.6 685.032C1335.63 686.555 1336.01 689.815 1336 692C1335.96 699.424 1339.58 706.892 1347.77 700.297C1354.09 695.215 1351.37 686.454 1344 684.685C1342.06 684.221 1339.33 683.696 1337.6 685.032M623.015 686.743C618.723 688.41 616.673 692.79 615.68 697C613.583 705.883 613.024 716.103 615.24 725C616.685 730.803 621.196 737.146 627.999 734.812C640.786 730.425 638.987 706.334 636.475 696C634.96 689.772 630.019 684.024 623.015 686.743z"/>
</svg>
