<?xml version="1.0" standalone="yes"?>
<svg xmlns="http://www.w3.org/2000/svg" width="180" height="180">
<path style="fill:#ffffff; stroke:none;" d="M0 0L0 29L11 29L11 84L29 84L29 50L39 50L39 39L50 39L50 29L64 29L64 9L76 9L76 29L104 29L104 9L116 9L116 29L130 29L130 39L141 39L141 50L151 50L151 84L169 84L169 29L180 29L180 0L0 0z"/>
<path style="fill:#808080; stroke:none;" d="M64 9L65 10L64 9z"/>
<path style="fill:#553986; stroke:none;" d="M64 29L50 29L50 39L39 39L39 50L29 50L29 84L11 84L11 29L0 29L0 85L9 85C9.0003 87.7031 8.23121 92.1287 10.0278 94.3966C12.9279 98.0575 24.7173 96 29 96L29 130L50 130L50 154L29 154L29 175L51 175L51 156L76 156L76 130L104 130L104 156L129 156L129 175L151 175L151 154L130 154L130 130L151 130L151 96C155.283 96 167.072 98.0575 169.972 94.3966C171.769 92.1287 171 87.7031 171 85L180 85L180 29L169 29L169 84L151 84L151 50L141 50L141 39L130 39L130 29L116 29C116 24.0663 117.601 15.798 115.397 11.3179C113.901 8.27818 107.067 8.02925 105.028 10.6034C102.093 14.3083 104 24.443 104 29L76 29C76 24.4429 77.9066 14.3083 74.9722 10.6034C72.9335 8.02925 66.0991 8.27818 64.6034 11.3179C62.3989 15.798 64 24.0663 64 29z"/>
<path style="fill:#0000ff; stroke:none;" d="M75 9L76 10L75 9M104 9L105 10L104 9z"/>
<path style="fill:#808080; stroke:none;" d="M115 9L116 10L115 9z"/>
<path style="fill:#ffffff; stroke:none;" d="M61 66L61 104L79 104L79 66L61 66M101 66L101 104L119 104L119 66L101 66M0 85L0 180L180 180L180 85L171 85L171 96L151 96L151 130L130 130L130 154L151 154L151 175L129 175L129 156L104 156L104 130L76 130L76 156L51 156L51 175L29 175L29 154L50 154L50 130L29 130L29 96L9 96L9 85L0 85z"/>
<path style="fill:#000080; stroke:none;" d="M9 95L10 96L9 95M170 95L171 96L170 95z"/>
</svg>
