<?xml version="1.0" standalone="yes"?>
<svg xmlns="http://www.w3.org/2000/svg" width="300" height="300">
<path style="fill:#ffffff; stroke:none;" d="M0 0L0 300L300 300L300 0L0 0z"/>
<path style="fill:#ea0000; stroke:none;" d="M128.715 50.5802C116.93 52.68 105.059 58.2982 95 64.5764C62.7323 84.7167 43.9001 126.263 50.26 164C57.2179 205.285 91.6007 237.896 132 245.624C137.445 246.666 143.474 246 149 246C154.21 246 159.865 246.607 165 245.624C179.57 242.837 193.911 237.234 206 228.572C216.539 221.02 226.025 211.078 232.829 200C239.382 189.332 244.65 176.404 246.74 164C247.66 158.54 247 152.526 247 147C247 141.79 247.607 136.135 246.624 131C239.095 91.6549 208.454 59.023 169 50.669C161.944 49.1749 154.18 50 147 50C140.967 50 134.681 49.5172 128.715 50.5802z"/>
<path style="fill:#ffffff; stroke:none;" d="M130 83L130 129L84 129L84 167L130 167L130 213L168 213C165.45 202.288 166.999 189.976 167 179C167 175.659 166.063 170.2 169.318 168.028C172.48 165.918 178.382 167 182 167L214 167L214 129L182 129C178.382 129 172.48 130.082 169.318 127.972C166.063 125.8 167 120.341 167 117C166.999 106.024 165.45 93.712 168 83L130 83z"/>
<path style="fill:#ff0000; stroke:none;" d="M167 84L167 128C168.552 124.301 168 119.983 168 116L168 96C168 92.0172 168.552 87.6987 167 84M83 129L83 167C84.4412 163.565 84 159.702 84 156C84 147.993 86.105 136.399 83 129M167 168L167 212C168.552 208.301 168 203.983 168 200L168 180C168 176.017 168.552 171.699 167 168z"/>
</svg>
