<svg width="600" height="600" xmlns="http://www.w3.org/2000/svg">

 <g>
  <title>Layer 1</title>
  <rect id="svg_11" height="600" width="600" y="0" x="0" fill="#28243c"/>
  <path id="svg_2" fill="#ead80d" d="m291.29551,51.252c-23.126,3.0454 -46.662,4.4363 -68,14.8348c-12.065,5.8795 -23.871,12.7577 -35,20.2593c-7.912,5.3336 -14.579,12.0205 -24,14.6042c-13.018,3.5701 -27.462,-5.0442 -41,-2.909c-10.4512,1.6485 -16.3124,14.4863 -11.5432,23.7713c5.8097,11.312 21.9942,9.382 32.5432,10.105c22.466,1.538 45.919,9.188 66,19.158c19.384,9.623 37.405,21.977 50.255,39.752c11.813,16.342 18.719,43.612 43.745,39.787c13.775,-2.105 20.574,-17.534 27.519,-27.787c10.426,-15.392 24.295,-28.919 39.481,-39.562c21.742,-15.237 48.665,-26.375 75,-30.138c13.272,-1.896 34.964,1.32 41.95,-13.301c4.209,-8.8089 0.263,-16.2983 -8.95,-18.8393c-11.674,-3.2196 -24.216,-2.1684 -36,-0.24c-4.37,0.7152 -8.638,1.5428 -13,0.2909c-15.311,-4.3938 -26.573,-19.2401 -40,-27.1959c-28.115,-16.6588 -66.252,-26.9029 -99,-22.5903z"/>
  <path id="svg_4" fill="#ead80d" d="m451.7429,286.8276c-18.19,-0.012 -35.997,-2.789 -54,1.745c-39.215,9.877 -72.145,44.62 -80.334,84.255c-3.991,19.319 -1.901,38.574 -1.67,58c0.29,24.326 0.004,48.672 0.004,73c0,8.357 -1.489,21.686 9.001,24.566c17.035,4.678 29.065,-21.073 36.191,-32.566c13.349,-21.529 28.409,-42.146 42.783,-63c10.605,-15.387 20.579,-31.197 32.014,-46c8.135,-10.531 22.425,-30.718 8.906,-42.656c-11.483,-10.141 -24.889,3.061 -31.971,11.656c-13.467,16.342 -22.889,36.36 -34.591,54c-5.316,8.013 -10.522,16.134 -16.054,24c-3.492,4.966 -7.9,9.381 -10.279,15c-2.614,-8.842 -1,-19.805 -1,-29c0,-39.31 12.306,-80.136 53,-94.76c14.994,-5.388 29.749,-2.054 45,-1.205c7.263,0.405 14.522,2.121 20.907,-2.687c7.492,-5.642 10.113,-17.723 12.334,-26.348c9.649,-37.48 7.624,-79.424 -8.103,-115c-4.048,-9.157 -9.158,-20.244 -17.153,-26.606c-6.288,-5.005 -14.034,-5.548 -19.645,0.711c-9.585,10.693 -1.367,25.346 3.907,35.895c8.963,17.928 15.225,39.801 14.738,60c-0.3,12.442 -3.984,24.524 -3.985,37m-204,162c-11.236,-16.656 -22.537,-33.275 -33.667,-50c-11.925,-17.92 -21.307,-41.546 -39.333,-54.362c-8.565,-6.089 -21.865,-4.441 -25.837,6.362c-1.682,4.574 -0.066,10.5 1.277,15c4.679,15.679 18.782,28.922 28.133,42c18.252,25.53 35.411,51.849 52.76,78c8.131,12.257 14.842,26.742 25.682,36.906c5.214,4.889 13.05,8.358 19.941,4.521c6.17,-3.435 6.042,-10.235 6.044,-16.427l0,-43c0,-50.092 7.187,-107.813 -29.17,-148c-5.771,-6.38 -12.67,-11.894 -19.83,-16.644c-16.166,-10.726 -37.598,-17.399 -57,-18.252c-9.83,-0.432 -23.583,4.342 -29.277,-7.119c-3.622,-7.292 -2.723,-16.114 -2.723,-23.985c0,-20.925 3.556,-42.881 12.309,-62c5.025,-10.977 17.018,-29.606 3.648,-39.347c-6.639,-4.837 -15.37,-2.883 -20.917,2.441c-8.486,8.145 -13.049,20.973 -16.707,31.906c-10.6017,31.69 -13.7304,63.93 -8.2528,97c1.8651,11.26 3.3616,26.084 11.1328,34.985c9.701,11.11 22.339,5.833 34.787,4.196c11.281,-1.485 22.111,-0.915 33,2.709c7.277,2.421 14.621,6.234 21,10.466c38.372,25.458 33,72.522 33,112.644m-34,-255.56c-9.366,1.508 -18.599,6.955 -23.004,15.56c-10.722,20.945 4.407,52.355 30.004,48.7c9.586,-1.369 19.485,-6.023 24.468,-14.701c12.758,-22.219 -5.059,-53.811 -31.468,-49.559m161,0.158c-9.351,2.244 -18.514,7.337 -22.647,16.402c-10.318,22.626 8.515,53.674 34.647,47.402c11.272,-2.706 20.944,-9.904 24.211,-21.402c6.2,-21.818 -12.324,-48.136 -36.211,-42.402z"/>
  <path id="svg_5" fill="#28243c" d="m204.1542,210.6786c-6.679,1.89 -6.811,10.791 -5.019,16.134c1.136,3.387 3.954,6.666 7.902,5.229c7.66,-2.789 6.779,-24.098 -2.883,-21.363m160.092,-0.104c-8.213,3.333 -6.007,24.071 3.853,20.63c9.255,-3.229 6.866,-24.98 -3.853,-20.63z"/>
 </g>
</svg>