<?xml version="1.0" standalone="yes"?>
<svg xmlns="http://www.w3.org/2000/svg" width="219" height="219">
<path style="fill:#ffffff; stroke:none;" d="M0 0L0 26C8.89453 23.9668 17.4611 22.8494 22.9907 32.0039C24.9022 35.1683 24.4288 39.5238 27.3179 42.034C30.7622 45.0264 35.8983 46.4565 40 48.3056C48.329 52.0604 56.6331 55.9328 65 59.5756C69.6079 61.5818 74.8512 64.7329 80 64.6104C82.9484 64.5402 87.2372 64.3123 89.6096 62.3966C92.8715 59.7625 94.2164 54.6905 95.8611 51C99.8675 42.0104 107.417 31.7112 109.083 22C110.296 14.9272 105.32 7.51184 115.004 3.89738C124.873 0.213486 126.489 11.3415 130.563 16.9105C133.685 21.1767 138.907 24.3258 143 27.6003C150.162 33.3297 158.481 42.5025 167 45.9715C172.785 48.327 177.973 43.6052 183.985 47.7029C186.896 49.6878 189.262 52.6303 190.348 55.9992C191.126 58.4129 190.791 61.1072 192.603 63.0957C198.748 69.8389 210.977 74.7301 219 79L219 0L0 0z"/>
<path style="fill:#ffc8a4; stroke:none;" d="M115 3C117.052 3.87425 118.747 3.95279 121 4C118.948 3.12576 117.253 3.04721 115 3z"/>
<path style="fill:#ffffff; stroke:none;" d="M121 3L122 4L121 3M112 4L113 5L112 4z"/>
<path style="fill:#ffd6ba; stroke:none;" d="M113 4L114 5L113 4z"/>
<path style="fill:#ff9349; stroke:none;" d="M100 57C107.111 52.8914 110.201 39.2041 113.756 32C115.299 28.8731 117.063 23.9389 121.043 23.3356C125.38 22.6783 129.978 27.6658 134 29C133.634 25.9805 133.821 23.8174 135 21C132.724 19.245 130.415 17.5724 129.011 14.9838C126.644 10.6189 126.714 5.98996 120.996 4.43442C119.751 4.09566 118.284 3.97018 117.001 4.12422C106.161 5.425 110.945 14.4737 109.659 21.4244C108.265 28.9598 102.297 35.6982 99.9838 42.9992C98.5872 47.4073 100.649 52.3449 100 57z"/>
<path style="fill:#ffb98c; stroke:none;" d="M122 4L123 5L122 4z"/>
<path style="fill:#fff7f2; stroke:none;" d="M123 4L124 5L123 4M111 5L112 6L111 5z"/>
<path style="fill:#ffdbc5; stroke:none;" d="M124 5L125 6L124 5z"/>
<path style="fill:#fff1e7; stroke:none;" d="M110 6L111 7L110 6z"/>
<path style="fill:#ffd4ba; stroke:none;" d="M125 6L126 7L125 6z"/>
<path style="fill:#fff7f2; stroke:none;" d="M109 7L110 8L109 7z"/>
<path style="fill:#ffe2d0; stroke:none;" d="M126 7L127 8L126 7z"/>
<path style="fill:#ffc9a3; stroke:none;" d="M109 8L110 9L109 8z"/>
<path style="fill:#ffd6b9; stroke:none;" d="M108.333 9.66667C108.278 9.72218 108.222 10.7778 108.667 10.3333C108.722 10.2777 108.778 9.22227 108.333 9.66667z"/>
<path style="fill:#ffd4b9; stroke:none;" d="M127 9L128 10L127 9z"/>
<path style="fill:#ffae75; stroke:none;" d="M108 11L108 16C108.83 13.9695 108.83 13.0305 108 11z"/>
<path style="fill:#ffe2d0; stroke:none;" d="M128 12L128 16C128.71 14.2405 128.71 13.7595 128 12z"/>
<path style="fill:#fff7f2; stroke:none;" d="M108.333 16.6667C108.278 16.7222 108.222 17.7778 108.667 17.3333C108.722 17.2777 108.778 16.2223 108.333 16.6667M129 16L130 17L129 16z"/>
<path style="fill:#ffe9dc; stroke:none;" d="M130 17L131 18L130 17z"/>
<path style="fill:#ffc9a3; stroke:none;" d="M109 18L110 19L109 18z"/>
<path style="fill:#ffdbc5; stroke:none;" d="M131 18L132 19L131 18z"/>
<path style="fill:#ffc6a4; stroke:none;" d="M132 19L133 20L132 19z"/>
<path style="fill:#ffc9a2; stroke:none;" d="M110 20L111 21L110 20z"/>
<path style="fill:#fff7f2; stroke:none;" d="M134 20L135 21L134 20M109 21L110 22L109 21z"/>
<path style="fill:#ffe9db; stroke:none;" d="M135 21L136 22L135 21z"/>
<path style="fill:#ffcfae; stroke:none;" d="M109 22L110 23L109 22z"/>
<path style="fill:#ffd5ba; stroke:none;" d="M122.667 22.3333C122.222 22.7778 123.278 22.7222 123.333 22.6667C123.778 22.2222 122.722 22.2778 122.667 22.3333z"/>
<path style="fill:#ff8348; stroke:none;" d="M134 22C132.078 29.7296 136.243 32.5921 142 37.1998C148.352 42.2841 157.703 47.4831 162.397 54.1705C167.292 61.1457 163.038 69.3862 174 72L174 135C168.17 136.001 169.333 141.199 169.333 146C169.333 154.316 165.68 171.787 175 175C177.005 164.7 175.667 153.149 175.667 142.667L175.667 79.3333C175.667 68.4434 174.496 56.7859 176 46C159.565 49.608 148.327 27.541 134 22z"/>
<path style="fill:#ffdac5; stroke:none;" d="M136 22L137 23L136 22z"/>
<path style="fill:#f0bb95; stroke:none;" d="M118 23C119.248 23.6848 119.548 23.7488 121 24C119.752 23.3152 119.451 23.2512 118 23z"/>
<path style="fill:#ffffff; stroke:none;" d="M121.043 23.902C114.331 25.3648 110.421 39.3999 108 45C105.453 50.8913 98.1538 60.4132 98.9776 67C99.3011 69.5867 101.362 71.6999 102.433 73.9992C105.774 81.1721 108.846 84.8316 115 90.1304C125.288 98.9882 135.326 108.254 145.985 116.664C151.568 121.07 156.53 126.163 162 130.724C164.385 132.712 167.443 135.677 170.852 134.704C174.584 133.64 173.994 129.008 174 126L174 102C174 93.8556 175.908 82.9715 173.682 75.1296C172.624 71.4032 168.085 70.0431 166.005 66.9059C163.391 62.9623 164.546 57.9726 162.231 54.1705C158.176 47.5127 148.088 42.0037 142 37.2106C137.281 33.4948 127.518 22.4909 121.043 23.902z"/>
<path style="fill:#ffe9dc; stroke:none;" d="M124 23L125 24L124 23z"/>
<path style="fill:#ffbe98; stroke:none;" d="M137 23L138 24L137 23z"/>
<path style="fill:#ffdcaf; stroke:none;" d="M5 24C6.24836 24.6848 6.54842 24.7488 8 25C6.75169 24.3152 6.45153 24.2512 5 24z"/>
<path style="fill:#ffc377; stroke:none;" d="M8 24C9.76902 24.7789 11.036 24.9124 13 25C11.2309 24.2211 9.96408 24.0876 8 24z"/>
<path style="fill:#ffead1; stroke:none;" d="M13 24L14 25L13 24z"/>
<path style="fill:#ffd6b9; stroke:none;" d="M108 24L109 25L108 24z"/>
<path style="fill:#eef1f0; stroke:none;" d="M117 24C118.248 24.6848 118.548 24.7488 120 25C118.752 24.3152 118.452 24.2512 117 24z"/>
<path style="fill:#fff7f2; stroke:none;" d="M125 24L126 25L125 24M139 24L140 25L139 24z"/>
<path style="fill:#ffffff; stroke:none;" d="M2 25L3 26L2 25z"/>
<path style="fill:#ffdcaf; stroke:none;" d="M3 25L4 26L3 25z"/>
<path style="fill:#ffae4a; stroke:none;" d="M32 53C31.6336 49.9806 31.8207 47.8174 33 45C30.1771 44.1843 26.7257 43.2579 25.0278 40.6096C23.768 38.6447 24.1535 36.1564 23.4869 34.0008C22.1523 29.685 18.364 26.3982 14 25.3943C12.3771 25.0209 10.6577 24.9897 9 25.0193C-1.10481 25.1994 -0.000502054 33.192 0 41C0.000229025 44.5618 -0.845435 49.6293 2.3179 52.142C8.79597 57.2875 15.6648 51.447 22 50.5324C25.278 50.0592 28.8889 52.1494 32 53z"/>
<path style="fill:#ffcb8d; stroke:none;" d="M15 25L16 26L15 25z"/>
<path style="fill:#fff4e7; stroke:none;" d="M16 25L17 26L16 25z"/>
<path style="fill:#ffc6a2; stroke:none;" d="M127 25L128 26L127 25z"/>
<path style="fill:#ffe8db; stroke:none;" d="M140 25L141 26L140 25z"/>
<path style="fill:#ffffff; stroke:none;" d="M0 26L1 27L0 26z"/>
<path style="fill:#ffe1bb; stroke:none;" d="M1 26L2 27L1 26z"/>
<path style="fill:#ffd099; stroke:none;" d="M17 26L18 27L17 26z"/>
<path style="fill:#fff9f2; stroke:none;" d="M18 26L19 27L18 26z"/>
<path style="fill:#ffddc5; stroke:none;" d="M107 26L108 27L107 26z"/>
<path style="fill:#ffd5b9; stroke:none;" d="M116 26L117 27L116 26z"/>
<path style="fill:#ffdbc5; stroke:none;" d="M128 26L129 27L128 26z"/>
<path style="fill:#ffd3ba; stroke:none;" d="M141 26L142 27L141 26z"/>
<path style="fill:#ffce8d; stroke:none;" d="M0 27L1 28L0 27z"/>
<path style="fill:#ffeedc; stroke:none;" d="M19 27L20 28L19 27z"/>
<path style="fill:#ffe9db; stroke:none;" d="M129 27L130 28L129 27z"/>
<path style="fill:#ffbd98; stroke:none;" d="M142 27L143 28L142 27z"/>
<path style="fill:#ffe9d0; stroke:none;" d="M20 28L21 29L20 28z"/>
<path style="fill:#ffe4d0; stroke:none;" d="M106 28L107 29L106 28z"/>
<path style="fill:#ffd6ba; stroke:none;" d="M115 28L116 29L115 28z"/>
<path style="fill:#fff7f2; stroke:none;" d="M130 28L131 29L130 28z"/>
<path style="fill:#ffb88c; stroke:none;" d="M131 28L132 29L131 28z"/>
<path style="fill:#fff7f2; stroke:none;" d="M144 28L145 29L144 28z"/>
<path style="fill:#ffeedc; stroke:none;" d="M21 29L22 30L21 29z"/>
<path style="fill:#ffcdae; stroke:none;" d="M132 29L133 30L132 29z"/>
<path style="fill:#ffe8db; stroke:none;" d="M145 29L146 30L145 29z"/>
<path style="fill:#fff9f2; stroke:none;" d="M22 30L23 31L22 30z"/>
<path style="fill:#fff1e7; stroke:none;" d="M105 30L106 31L105 30z"/>
<path style="fill:#ffc8a2; stroke:none;" d="M114 30L115 31L114 30z"/>
<path style="fill:#ffe2d0; stroke:none;" d="M133 30L134 31L133 30z"/>
<path style="fill:#ffd2b9; stroke:none;" d="M146 30L147 31L146 30z"/>
<path style="fill:#ffca8c; stroke:none;" d="M22 31L23 32L22 31z"/>
<path style="fill:#ffbc8b; stroke:none;" d="M105 31L106 32L105 31z"/>
<path style="fill:#fff7f2; stroke:none;" d="M114 31L115 32L114 31z"/>
<path style="fill:#fff0e7; stroke:none;" d="M134 31L135 32L134 31z"/>
<path style="fill:#ffb58c; stroke:none;" d="M147 31L148 32L147 31z"/>
<path style="fill:#fff4e7; stroke:none;" d="M23 32L24 33L23 32z"/>
<path style="fill:#fff1e7; stroke:none;" d="M104 32L105 33L104 32z"/>
<path style="fill:#ffc8a3; stroke:none;" d="M113 32L114 33L113 32z"/>
<path style="fill:#fff7f2; stroke:none;" d="M135 32L136 33L135 32z"/>
<path style="fill:#ffb78b; stroke:none;" d="M136 32L137 33L136 32z"/>
<path style="fill:#fff7f2; stroke:none;" d="M149 32L150 33L149 32z"/>
<path style="fill:#fff1e7; stroke:none;" d="M113 33L114 34L113 33z"/>
<path style="fill:#ffccae; stroke:none;" d="M137 33L138 34L137 33z"/>
<path style="fill:#ffe8db; stroke:none;" d="M150 33L151 34L150 33z"/>
<path style="fill:#ffe4c5; stroke:none;" d="M24 34L24 37C24.6961 35.4463 24.6961 35.5537 24 34z"/>
<path style="fill:#fff8f2; stroke:none;" d="M103 34L104 35L103 34z"/>
<path style="fill:#ffbb8b; stroke:none;" d="M112 34L113 35L112 34z"/>
<path style="fill:#ffe1d0; stroke:none;" d="M138 34L139 35L138 34z"/>
<path style="fill:#ffd2ba; stroke:none;" d="M151 34L152 35L151 34z"/>
<path style="fill:#ffc9a2; stroke:none;" d="M103 35L104 36L103 35z"/>
<path style="fill:#fff1e7; stroke:none;" d="M112 35L113 36L112 35z"/>
<path style="fill:#fff7f2; stroke:none;" d="M139 35L140 36L139 35z"/>
<path style="fill:#ffb58c; stroke:none;" d="M152 35L153 36L152 35z"/>
<path style="fill:#fff8f2; stroke:none;" d="M102 36L103 37L102 36z"/>
<path style="fill:#ffbb8c; stroke:none;" d="M111 36L112 37L111 36z"/>
<path style="fill:#ffb68c; stroke:none;" d="M141 36L142 37L141 36z"/>
<path style="fill:#ffefe7; stroke:none;" d="M154 36L155 37L154 36z"/>
<path style="fill:#ffbe75; stroke:none;" d="M24 37L24 42C24.8299 39.9695 24.8299 39.0305 24 37z"/>
<path style="fill:#ffd0ae; stroke:none;" d="M102 37L103 38L102 37z"/>
<path style="fill:#ffe3d0; stroke:none;" d="M111 37L112 38L111 37z"/>
<path style="fill:#ffd3b9; stroke:none;" d="M142 37L143 38L142 37z"/>
<path style="fill:#ffe0d0; stroke:none;" d="M155 37L156 38L155 37z"/>
<path style="fill:#ffe8dc; stroke:none;" d="M143 38L144 39L143 38z"/>
<path style="fill:#ffcaae; stroke:none;" d="M156 38L157 39L156 38z"/>
<path style="fill:#ffd7b9; stroke:none;" d="M101 39L102 40L101 39z"/>
<path style="fill:#ffe3d0; stroke:none;" d="M110 39L111 40L110 39z"/>
<path style="fill:#fff7f2; stroke:none;" d="M144 39L145 40L144 39z"/>
<path style="fill:#ffb48c; stroke:none;" d="M157 39L158 40L157 39z"/>
<path style="fill:#fff7f2; stroke:none;" d="M158 39L159 40L158 39z"/>
<path style="fill:#ffb58b; stroke:none;" d="M146 40L147 41L146 40z"/>
<path style="fill:#ffefe7; stroke:none;" d="M159 40L160 41L159 40z"/>
<path style="fill:#ffffff; stroke:none;" d="M25 41L26 42L25 41z"/>
<path style="fill:#ffdec5; stroke:none;" d="M100 41L101 42L100 41z"/>
<path style="fill:#ffd6b9; stroke:none;" d="M109 41L110 42L109 41z"/>
<path style="fill:#ffd2b9; stroke:none;" d="M147 41L148 42L147 41z"/>
<path style="fill:#ffe0d0; stroke:none;" d="M160 41L161 42L160 41z"/>
<path style="fill:#ffdfba; stroke:none;" d="M26 42L27 43L26 42z"/>
<path style="fill:#ffffff; stroke:none;" d="M27 42L28 43L27 42z"/>
<path style="fill:#ffe8db; stroke:none;" d="M148 42L149 43L148 42z"/>
<path style="fill:#ffcaaf; stroke:none;" d="M161 42L162 43L161 42z"/>
<path style="fill:#ffd4a4; stroke:none;" d="M28 43L29 44L28 43z"/>
<path style="fill:#fff9f2; stroke:none;" d="M29 43L30 44L29 43z"/>
<path style="fill:#ffe4d0; stroke:none;" d="M99 43L100 44L99 43z"/>
<path style="fill:#ffd6ba; stroke:none;" d="M108 43L109 44L108 43z"/>
<path style="fill:#fff7f2; stroke:none;" d="M149 43L150 44L149 43z"/>
<path style="fill:#fff6f2; stroke:none;" d="M163 43L164 44L163 43z"/>
<path style="fill:#ffc98d; stroke:none;" d="M30 44L31 45L30 44z"/>
<path style="fill:#fff3e7; stroke:none;" d="M31 44L32 45L31 44z"/>
<path style="fill:#ffbc97; stroke:none;" d="M151 44L152 45L151 44z"/>
<path style="fill:#ffe7db; stroke:none;" d="M164 44L165 45L164 44z"/>
<path style="fill:#ffe8d0; stroke:none;" d="M33 45L34 46L33 45z"/>
<path style="fill:#fff1e7; stroke:none;" d="M98 45L99 46L98 45z"/>
<path style="fill:#ffc9a2; stroke:none;" d="M107 45L108 46L107 45z"/>
<path style="fill:#ffd2b9; stroke:none;" d="M152 45L153 46L152 45z"/>
<path style="fill:#ffd8c5; stroke:none;" d="M165 45L166 46L165 45z"/>
<path style="fill:#ffdfd1; stroke:none;" d="M174 45C176.052 45.8742 177.747 45.9528 180 46C177.948 45.1257 176.253 45.0472 174 45z"/>
<path style="fill:#ff9d49; stroke:none;" d="M31 47C31.9574 54.5715 36.4861 55.5981 43 58.7415C52.7929 63.4673 62.9621 67.8264 73 72C72.1653 74.6388 71.2494 77.1898 71.3827 80C71.5088 82.6578 72.6545 85.3748 71.6829 88C69.8889 92.8471 63.8947 95.0764 62.3125 99.9853C61.4957 102.52 63.2327 105.334 63 108C70.3722 104.562 74.9009 97.091 82 93C80.9654 84.5434 80.8233 74.4415 82 66C70.2952 64.8024 57.6514 56.6286 47 51.7693C41.9996 49.488 36.55 45.928 31 47z"/>
<path style="fill:#ffdebb; stroke:none;" d="M35 46L36 47L35 46z"/>
<path style="fill:#ffbd8c; stroke:none;" d="M98 46L99 47L98 46z"/>
<path style="fill:#fff7f2; stroke:none;" d="M107 46L108 47L107 46z"/>
<path style="fill:#ffe8dc; stroke:none;" d="M153 46L154 47L153 46z"/>
<path style="fill:#ffc2a3; stroke:none;" d="M166 46L167 47L166 46z"/>
<path style="fill:#ffefe7; stroke:none;" d="M171 46L172 47L171 46z"/>
<path style="fill:#ff9a6a; stroke:none;" d="M172.667 46.3333C172.222 46.7778 173.278 46.7222 173.333 46.6667C173.778 46.2222 172.722 46.2778 172.667 46.3333z"/>
<path style="fill:#ff8248; stroke:none;" d="M175 47C177.421 66.7919 175.333 88.0527 175.333 108C175.333 129.998 177.38 153.137 175 175L181 175C177.096 168.754 179.667 154.824 179.667 147.333L179.667 76L179.667 54C179.667 51.5642 178.811 48.0424 181 47C178.677 46.0785 177.419 46.3127 175 47z"/>
<path style="fill:#ffb898; stroke:none;" d="M181 46L182 47L181 46z"/>
<path style="fill:#ffeee7; stroke:none;" d="M182 46L183 47L182 46z"/>
<path style="fill:#ffd8af; stroke:none;" d="M37 47L38 48L37 47z"/>
<path style="fill:#fff9f2; stroke:none;" d="M38 47L39 48L38 47z"/>
<path style="fill:#fff1e7; stroke:none;" d="M97 47L98 48L97 47z"/>
<path style="fill:#ff9849; stroke:none;" d="M98 47C95.8776 51.479 93.7737 60.1364 89.5818 62.9761C87.313 64.513 83.64 64.5078 81 65C82.1634 74.509 82.0365 85.4776 81 95C87.9592 97.057 96.3948 95.939 100 89C110.068 95.6596 118.098 106.923 129 112L125 106L130 104C122.928 95.2298 111.184 89.9913 104.857 80.7145C103.459 78.6642 103.242 76.2375 102.299 74C101.183 71.351 98.5884 69.0073 98.5656 66C98.5429 63.006 100.873 59.7076 102 57C99.1883 54.019 101.642 50.0205 98 47z"/>
<path style="fill:#ffc9a3; stroke:none;" d="M106 47L107 48L106 47z"/>
<path style="fill:#fff7f2; stroke:none;" d="M154 47L155 48L154 47z"/>
<path style="fill:#fff6f2; stroke:none;" d="M168.667 47.3333C168.222 47.7778 169.278 47.7222 169.333 47.6667C169.778 47.2222 168.722 47.2778 168.667 47.3333z"/>
<path style="fill:#ffb28c; stroke:none;" d="M170 47L171 48L170 47z"/>
<path style="fill:#ff8148; stroke:none;" d="M179 47C181.658 68.7259 179.333 92.1022 179.333 114C179.333 133.496 181.69 154.702 179 174C182.108 173.856 186.007 172.164 189 172.777C192.244 173.442 194.774 176.79 197 179L201 177C201.97 179.492 202.475 180.146 205 181C203.842 178.166 202.38 176.046 203 173C200.662 170.956 196.56 168.546 195.637 165.41C194.776 162.488 196.938 158.126 196.981 155C197.124 144.738 191.239 136.826 181 135L181 72C182.954 71.5526 185.403 70.3296 187.426 70.6196C190.717 71.0915 194.162 74.1012 197 75.7191C204.276 79.8672 211.259 84.7602 219 88C218.998 85.6231 219.423 82.5983 218.397 80.3789C217.113 77.6015 213.487 76.0811 211 74.6034C205.098 71.0963 195.995 67.8528 191.603 62.4715C189.799 60.2607 190.294 57.574 189.567 55.0008C188.128 49.9041 183.92 47.5479 179 47z"/>
<path style="fill:#ffaf8c; stroke:none;" d="M183 47L184 48L183 47z"/>
<path style="fill:#ffeee7; stroke:none;" d="M184 47L185 48L184 47z"/>
<path style="fill:#ffcd99; stroke:none;" d="M39 48L40 49L39 48z"/>
<path style="fill:#fff3e7; stroke:none;" d="M40 48L41 49L40 48z"/>
<path style="fill:#fff1e7; stroke:none;" d="M106 48L107 49L106 48z"/>
<path style="fill:#ffc2a2; stroke:none;" d="M156 48L157 49L156 48z"/>
<path style="fill:#ffd6c5; stroke:none;" d="M185 48L186 49L185 48z"/>
<path style="fill:#ffdfba; stroke:none;" d="M21.6667 49.3333C21.2222 49.7778 22.2778 49.7222 22.3333 49.6667C22.7778 49.2222 21.7223 49.2777 21.6667 49.3333z"/>
<path style="fill:#ffc78d; stroke:none;" d="M41 49L42 50L41 49z"/>
<path style="fill:#ffeddc; stroke:none;" d="M42 49L43 50L42 49z"/>
<path style="fill:#fff8f2; stroke:none;" d="M96 49L97 50L96 49z"/>
<path style="fill:#ffbc8b; stroke:none;" d="M105 49L106 50L105 49z"/>
<path style="fill:#ffd9c5; stroke:none;" d="M157 49L158 50L157 49z"/>
<path style="fill:#ffc6ae; stroke:none;" d="M186 49L187 50L186 49z"/>
<path style="fill:#fff9f2; stroke:none;" d="M20 50L19 52C20.2627 51.0287 20.3919 51.3063 20 50z"/>
<path style="fill:#ffffff; stroke:none;" d="M0 52L0 103C0 107.822 -1.84464 117.52 1.6034 121.351C3.43501 123.386 6.50834 124.149 9 125C14.3138 118.03 21.6231 111.695 31 112.21C35.6088 112.463 41.7263 116.572 46 114.292C51.2941 111.467 55.7904 105.21 60 101C63.5744 97.4256 70.0395 92.9683 71.5972 88C72.3894 85.4735 71.1133 82.5823 71.0826 80C71.0549 77.6727 72.1473 74.6363 70.8827 72.4985C68.8982 69.1436 62.3662 67.638 59 66.1389C51.322 62.7195 43.648 59.2584 36 55.7693C32.3299 54.095 28.0017 51.3971 24 50.7701C19.6523 50.0888 16.1145 53.8081 12 54.5949C7.77926 55.402 3.83706 53.4777 0 52z"/>
<path style="fill:#ffe9d0; stroke:none;" d="M24 50L25 51L24 50z"/>
<path style="fill:#ffe2c6; stroke:none;" d="M44 50L45 51L44 50z"/>
<path style="fill:#ffcaa3; stroke:none;" d="M96 50L97 51L96 50z"/>
<path style="fill:#fff1e7; stroke:none;" d="M105 50L106 51L105 50z"/>
<path style="fill:#ffe8db; stroke:none;" d="M158 50L159 51L158 50z"/>
<path style="fill:#ffceb9; stroke:none;" d="M187 50L188 51L187 50z"/>
<path style="fill:#ffe1ba; stroke:none;" d="M0 51L1 52L0 51z"/>
<path style="fill:#fff4e7; stroke:none;" d="M26 51L27 52L26 51z"/>
<path style="fill:#ffc88c; stroke:none;" d="M27 51L28 52L27 51z"/>
<path style="fill:#fff8f2; stroke:none;" d="M46.6667 51.3333C46.2222 51.7778 47.2778 51.7222 47.3333 51.6667C47.7778 51.2222 46.7222 51.2778 46.6667 51.3333M95 51L96 52L95 51z"/>
<path style="fill:#ffbc8c; stroke:none;" d="M104 51L105 52L104 51z"/>
<path style="fill:#fff6f2; stroke:none;" d="M159 51L160 52L159 51z"/>
<path style="fill:#ffe6db; stroke:none;" d="M188 51L189 52L188 51z"/>
<path style="fill:#fff4e7; stroke:none;" d="M1 52L2 53L1 52z"/>
<path style="fill:#ffead1; stroke:none;" d="M17 52L18 53L17 52z"/>
<path style="fill:#fff3e7; stroke:none;" d="M28 52L29 53L28 52z"/>
<path style="fill:#ffd4a3; stroke:none;" d="M29 52L30 53L29 52z"/>
<path style="fill:#ffd1a4; stroke:none;" d="M48 52L49 53L48 52z"/>
<path style="fill:#fff3e7; stroke:none;" d="M49 52L50 53L49 52z"/>
<path style="fill:#ffd1ae; stroke:none;" d="M95 52L96 53L95 52z"/>
<path style="fill:#ffe4d0; stroke:none;" d="M104 52L105 53L104 52z"/>
<path style="fill:#ffc2a3; stroke:none;" d="M161 52L162 53L161 52z"/>
<path style="fill:#ffd298; stroke:none;" d="M3.66667 53.3333C3.2222 53.7778 4.27778 53.7222 4.33333 53.6667C4.77776 53.2222 3.72224 53.2778 3.66667 53.3333z"/>
<path style="fill:#ffe4c5; stroke:none;" d="M15 53L16 54L15 53z"/>
<path style="fill:#ffdeba; stroke:none;" d="M30.6667 53.3333C30.2222 53.7778 31.2778 53.7222 31.3333 53.6667C31.7778 53.2222 30.7222 53.2778 30.6667 53.3333z"/>
<path style="fill:#ffc68d; stroke:none;" d="M50 53L51 54L50 53z"/>
<path style="fill:#fff3e7; stroke:none;" d="M51 53L52 54L51 53z"/>
<path style="fill:#ffd8c5; stroke:none;" d="M162 53L163 54L162 53z"/>
<path style="fill:#ffceb9; stroke:none;" d="M189 53L190 54L189 53z"/>
<path style="fill:#ffead1; stroke:none;" d="M6.66667 54.3333C6.22225 54.7778 7.27776 54.7222 7.33333 54.6667C7.77783 54.2222 6.72221 54.2778 6.66667 54.3333z"/>
<path style="fill:#ffd6a3; stroke:none;" d="M8 54C9.24838 54.6848 9.5484 54.7488 11 55C9.75171 54.3152 9.45151 54.2512 8 54z"/>
<path style="fill:#ffead0; stroke:none;" d="M11 54C12.2484 54.6848 12.5484 54.7488 14 55C12.7517 54.3152 12.4515 54.2512 11 54z"/>
<path style="fill:#ffe3c5; stroke:none;" d="M33 54L34 55L33 54z"/>
<path style="fill:#d3dad8; stroke:none;" d="M53 54C54.458 55.0811 55.248 55.4361 57 56C55.457 54.7333 54.9522 54.5108 53 54z"/>
<path style="fill:#ffd7ba; stroke:none;" d="M94 54L95 55L94 54z"/>
<path style="fill:#ffe4d0; stroke:none;" d="M103 54L104 55L103 54z"/>
<path style="fill:#ffe7db; stroke:none;" d="M163 54L164 55L163 54z"/>
<path style="fill:#ffe8d0; stroke:none;" d="M35 55L36 56L35 55z"/>
<path style="fill:#ffc78c; stroke:none;" d="M36 55L37 56L36 55z"/>
<path style="fill:#ffceb9; stroke:none;" d="M190.333 55.6667C190.278 55.7222 190.222 56.7778 190.667 56.3333C190.722 56.2778 190.778 55.2223 190.333 55.6667z"/>
<path style="fill:#fff3e7; stroke:none;" d="M37 56L38 57L37 56z"/>
<path style="fill:#ffcd97; stroke:none;" d="M38 56L39 57L38 56z"/>
<path style="fill:#ffd0a4; stroke:none;" d="M57 56L58 57L57 56z"/>
<path style="fill:#fff8f2; stroke:none;" d="M58 56L59 57L58 56z"/>
<path style="fill:#ffd8ba; stroke:none;" d="M93 56L94 57L93 56z"/>
<path style="fill:#ffd7ba; stroke:none;" d="M102 56L103 57L102 56z"/>
<path style="fill:#ffe0d0; stroke:none;" d="M163 56L163 61C163.83 58.9695 163.83 58.0305 163 56z"/>
<path style="fill:#fff9f2; stroke:none;" d="M39 57L40 58L39 57z"/>
<path style="fill:#ffd7ae; stroke:none;" d="M40 57L41 58L40 57z"/>
<path style="fill:#ffc48d; stroke:none;" d="M59 57L60 58L59 57z"/>
<path style="fill:#fff2e7; stroke:none;" d="M60 57L61 58L60 57z"/>
<path style="fill:#ffb597; stroke:none;" d="M190 57L190 63C190.951 60.7147 190.951 59.2853 190 57z"/>
<path style="fill:#ffddba; stroke:none;" d="M42 58L43 59L42 58z"/>
<path style="fill:#ffe6d0; stroke:none;" d="M62 58L63 59L62 58z"/>
<path style="fill:#ffe4d0; stroke:none;" d="M92 58L93 59L92 58z"/>
<path style="fill:#ffd7ba; stroke:none;" d="M101 58L102 59L101 58z"/>
<path style="fill:#ffe8d0; stroke:none;" d="M44 59L45 60L44 59z"/>
<path style="fill:#ffdbba; stroke:none;" d="M64 59L65 60L64 59z"/>
<path style="fill:#fff3e7; stroke:none;" d="M46 60L47 61L46 60z"/>
<path style="fill:#ffd5af; stroke:none;" d="M66 60L67 61L66 60z"/>
<path style="fill:#fff8f2; stroke:none;" d="M67 60L68 61L67 60z"/>
<path style="fill:#ffebdc; stroke:none;" d="M91 60L92 61L91 60z"/>
<path style="fill:#ffcaa3; stroke:none;" d="M100 60L101 61L100 60z"/>
<path style="fill:#fff8f2; stroke:none;" d="M48 61L49 62L48 61z"/>
<path style="fill:#ffd0a3; stroke:none;" d="M49 61L50 62L49 61z"/>
<path style="fill:#ffc998; stroke:none;" d="M68 61L69 62L68 61z"/>
<path style="fill:#fff2e7; stroke:none;" d="M69 61L70 62L69 61z"/>
<path style="fill:#ffbe8b; stroke:none;" d="M91 61L92 62L91 61z"/>
<path style="fill:#fff8f2; stroke:none;" d="M100 61L101 62L100 61z"/>
<path style="fill:#ffdcba; stroke:none;" d="M51 62L52 63L51 62z"/>
<path style="fill:#ffc28d; stroke:none;" d="M70 62L71 63L70 62z"/>
<path style="fill:#ffe6d0; stroke:none;" d="M71 62L72 63L71 62z"/>
<path style="fill:#fff1e7; stroke:none;" d="M90 62L91 63L90 62z"/>
<path style="fill:#ffcaa3; stroke:none;" d="M99 62L100 63L99 62z"/>
<path style="fill:#ffe7d0; stroke:none;" d="M53 63L54 64L53 63z"/>
<path style="fill:#ffdaba; stroke:none;" d="M73 63L74 64L73 63z"/>
<path style="fill:#ffffff; stroke:none;" d="M74 63L75 64L74 63M89 63L90 64L89 63z"/>
<path style="fill:#ffbe8c; stroke:none;" d="M90 63L91 64L90 63z"/>
<path style="fill:#fff1e7; stroke:none;" d="M99 63L100 64L99 63z"/>
<path style="fill:#ffd8c5; stroke:none;" d="M164.333 63.6667C164.278 63.7222 164.222 64.7778 164.667 64.3333C164.722 64.2778 164.778 63.2222 164.333 63.6667z"/>
<path style="fill:#ffeee7; stroke:none;" d="M192 63L193 64L192 63z"/>
<path style="fill:#fff3e7; stroke:none;" d="M55 64L56 65L55 64z"/>
<path style="fill:#ffc48c; stroke:none;" d="M56 64L57 65L56 64z"/>
<path style="fill:#fff8f2; stroke:none;" d="M75.6667 64.3333C75.2222 64.7778 76.2778 64.7222 76.3333 64.6667C76.7778 64.2222 75.7222 64.2778 75.6667 64.3333z"/>
<path style="fill:#ffd9ba; stroke:none;" d="M81 64C82.2484 64.6848 82.5484 64.7488 84 65C82.7517 64.3152 82.4515 64.2512 81 64z"/>
<path style="fill:#ffbd8c; stroke:none;" d="M98 64L99 65L98 64z"/>
<path style="fill:#ffbea3; stroke:none;" d="M193 64L194 65L193 64z"/>
<path style="fill:#fff6f2; stroke:none;" d="M194 64L195 65L194 64z"/>
<path style="fill:#fff8f2; stroke:none;" d="M57 65L58 66L57 65z"/>
<path style="fill:#ffd0a3; stroke:none;" d="M58 65L59 66L58 65z"/>
<path style="fill:#ffcda3; stroke:none;" d="M77 65L78 66L77 65z"/>
<path style="fill:#fff2e7; stroke:none;" d="M78.6667 65.3333C78.2222 65.7778 79.2778 65.7222 79.3333 65.6667C79.7777 65.2223 78.7223 65.2777 78.6667 65.3333z"/>
<path style="fill:#ffc18d; stroke:none;" d="M80 65L81 66L80 65z"/>
<path style="fill:#fff1e7; stroke:none;" d="M98 65L99 66L98 65z"/>
<path style="fill:#ffd5c4; stroke:none;" d="M195 65L196 66L195 65z"/>
<path style="fill:#ffdbba; stroke:none;" d="M59.6667 66.3333C59.2222 66.7778 60.2778 66.7222 60.3333 66.6667C60.7778 66.2222 59.7222 66.2778 59.6667 66.3333z"/>
<path style="fill:#ffb781; stroke:none;" d="M97.3333 66.6667C97.2778 66.7222 97.2222 67.7778 97.6667 67.3333C97.7223 67.2777 97.7777 66.2223 97.3333 66.6667z"/>
<path style="fill:#ffd1b9; stroke:none;" d="M165 66L166 67L165 66z"/>
<path style="fill:#ffe6db; stroke:none;" d="M197 66L198 67L197 66z"/>
<path style="fill:#ffe1c5; stroke:none;" d="M62 67L63 68L62 67z"/>
<path style="fill:#ffb598; stroke:none;" d="M198 67L199 68L198 67z"/>
<path style="fill:#fff6f2; stroke:none;" d="M199 67L200 68L199 67z"/>
<path style="fill:#ffecdc; stroke:none;" d="M64 68L65 69L64 68z"/>
<path style="fill:#ffc38c; stroke:none;" d="M65 68L66 69L65 68z"/>
<path style="fill:#ffbe8d; stroke:none;" d="M98 68L99 69L98 68z"/>
<path style="fill:#fff6f2; stroke:none;" d="M166 68L167 69L166 68z"/>
<path style="fill:#ffcdba; stroke:none;" d="M200 68L201 69L200 68z"/>
<path style="fill:#fff2e7; stroke:none;" d="M66 69L67 70L66 69z"/>
<path style="fill:#ffcea3; stroke:none;" d="M67 69L68 70L67 69z"/>
<path style="fill:#ffbd8c; stroke:none;" d="M99 69L100 70L99 69z"/>
<path style="fill:#fff6f2; stroke:none;" d="M167 69L168 70L167 69z"/>
<path style="fill:#ffc6ae; stroke:none;" d="M186 69L187 70L186 69z"/>
<path style="fill:#ffddd0; stroke:none;" d="M202 69L203 70L202 69z"/>
<path style="fill:#fff8f2; stroke:none;" d="M68 70L69 71L68 70z"/>
<path style="fill:#ffd4ae; stroke:none;" d="M69 70L70 71L69 70z"/>
<path style="fill:#ffd0ae; stroke:none;" d="M100 70L101 71L100 70z"/>
<path style="fill:#ffc1a2; stroke:none;" d="M169 70L170 71L169 70z"/>
<path style="fill:#ffe6db; stroke:none;" d="M185 70L184 72C185.263 71.0287 185.392 71.3063 185 70z"/>
<path style="fill:#ffffff; stroke:none;" d="M184 118L184 120C180.608 122.446 179.372 129.781 182.028 133.44C183.382 135.306 186.12 135.829 187.997 137.005C190.787 138.751 193.091 141.178 194.775 144.001C197.049 147.81 198.38 152.573 197.667 157C197.212 159.832 195.136 163.029 196.238 165.91C197.343 168.8 200.805 170.974 202.996 173C208.214 177.827 213.615 182.427 219 187L219 111C219 103.925 222.448 88.7361 213 88C211.39 83.2525 206.112 81.2625 202 78.8002C197.613 76.1731 189.476 69.1578 184.148 71.8287C180.114 73.851 180.848 79.2534 181.205 83C181.953 90.8435 180.999 99.0695 181 107C181 111.296 180.26 115.302 184 118z"/>
<path style="fill:#fff6f2; stroke:none;" d="M187 70L188 71L187 70z"/>
<path style="fill:#ffb697; stroke:none;" d="M188 70L189 71L188 70z"/>
<path style="fill:#ffad8c; stroke:none;" d="M203 70L204 71L203 70z"/>
<path style="fill:#fff6f2; stroke:none;" d="M204 70L205 71L204 70z"/>
<path style="fill:#ffdaba; stroke:none;" d="M71 71L72 72L71 71z"/>
<path style="fill:#fff1e7; stroke:none;" d="M101 71L102 72L101 71z"/>
<path style="fill:#ffefe7; stroke:none;" d="M170 71L171 72L170 71z"/>
<path style="fill:#ffeee7; stroke:none;" d="M189 71L190 72L189 71z"/>
<path style="fill:#ffbca3; stroke:none;" d="M205 71L206 72L205 71z"/>
<path style="fill:#fff8f2; stroke:none;" d="M72 72L73 73L72 72z"/>
<path style="fill:#ffe7db; stroke:none;" d="M173 72L174 73L173 72z"/>
<path style="fill:#fff6f2; stroke:none;" d="M181.667 72.3333C181.222 72.7778 182.278 72.7222 182.333 72.6667C182.778 72.2222 181.722 72.2778 181.667 72.3333z"/>
<path style="fill:#ffd6c5; stroke:none;" d="M191 72L192 73L191 72z"/>
<path style="fill:#ffddd0; stroke:none;" d="M207 72L208 73L207 72z"/>
<path style="fill:#ffcea3; stroke:none;" d="M72 73L73 74L72 73z"/>
<path style="fill:#ffeadc; stroke:none;" d="M102 73L103 74L102 73z"/>
<path style="fill:#fff6f2; stroke:none;" d="M192 73L193 74L192 73z"/>
<path style="fill:#ffbda2; stroke:none;" d="M193 73L194 74L193 73z"/>
<path style="fill:#ffede7; stroke:none;" d="M209 73L210 74L209 73z"/>
<path style="fill:#ffeee7; stroke:none;" d="M194 74L195 75L194 74z"/>
<path style="fill:#ffbca3; stroke:none;" d="M210 74L211 75L210 74z"/>
<path style="fill:#fff6f2; stroke:none;" d="M211 74L212 75L211 74z"/>
<path style="fill:#ffcea3; stroke:none;" d="M71.3333 75.6667C71.2778 75.7222 71.2222 76.7778 71.6667 76.3333C71.7222 76.2778 71.7778 75.2222 71.3333 75.6667z"/>
<path style="fill:#ffddd0; stroke:none;" d="M196 75L197 76L196 75z"/>
<path style="fill:#ffd4c5; stroke:none;" d="M212 75L213 76L212 75z"/>
<path style="fill:#ffd0ae; stroke:none;" d="M103 76L103 79C103.696 77.4463 103.696 77.5537 103 76z"/>
<path style="fill:#ffc5ae; stroke:none;" d="M198 76L199 77L198 76z"/>
<path style="fill:#ffe5db; stroke:none;" d="M214 76L215 77L214 76z"/>
<path style="fill:#fff6f2; stroke:none;" d="M199 77L200 78L199 77z"/>
<path style="fill:#ffac8b; stroke:none;" d="M200 77L201 78L200 77z"/>
<path style="fill:#ffb397; stroke:none;" d="M215 77L216 78L215 77z"/>
<path style="fill:#fff6f2; stroke:none;" d="M216 77L217 78L216 77z"/>
<path style="fill:#ffddd0; stroke:none;" d="M201 78L202 79L201 78z"/>
<path style="fill:#ffccba; stroke:none;" d="M217 78L218 79L217 78z"/>
<path style="fill:#ffccb9; stroke:none;" d="M203 79L204 80L203 79z"/>
<path style="fill:#fff6f2; stroke:none;" d="M204 80L205 81L204 80z"/>
<path style="fill:#ffb497; stroke:none;" d="M205 80L206 81L205 80z"/>
<path style="fill:#ffb575; stroke:none;" d="M71 81L71 84C71.6961 82.4463 71.6961 82.5537 71 81z"/>
<path style="fill:#ffbc8d; stroke:none;" d="M104 81L105 82L104 81z"/>
<path style="fill:#fff7f2; stroke:none;" d="M105 81L106 82L105 81z"/>
<path style="fill:#ffede7; stroke:none;" d="M206 81L207 82L206 81z"/>
<path style="fill:#fff7f2; stroke:none;" d="M106 82L107 83L106 82z"/>
<path style="fill:#ffd4c5; stroke:none;" d="M208 82L209 83L208 82z"/>
<path style="fill:#ffeadb; stroke:none;" d="M107 83L108 84L107 83z"/>
<path style="fill:#fff6f2; stroke:none;" d="M209 83L210 84L209 83z"/>
<path style="fill:#ffbba2; stroke:none;" d="M210 83L211 84L210 83z"/>
<path style="fill:#ffecdc; stroke:none;" d="M71 84L72 85L71 84z"/>
<path style="fill:#ffeadb; stroke:none;" d="M108 84L109 85L108 84z"/>
<path style="fill:#ffede7; stroke:none;" d="M211 84L212 85L211 84z"/>
<path style="fill:#eef1f0; stroke:none;" d="M20 85C21.0004 88.0359 21.8628 88.4943 25 88L25 86C23.1994 85.4382 21.8782 85.1759 20 85z"/>
<path style="fill:#ffd6b9; stroke:none;" d="M109 85L110 86L109 85z"/>
<path style="fill:#e0e5e4; stroke:none;" d="M181 85L181 89C182.243 87.097 182.243 86.903 181 85z"/>
<path style="fill:#d3dad8; stroke:none;" d="M213 85C213.578 87.6974 214.261 87.7893 217 88C215.659 86.7259 214.597 85.9593 213 85z"/>
<path style="fill:#ffdaba; stroke:none;" d="M72 86L73 87L72 86z"/>
<path style="fill:#ffc9a3; stroke:none;" d="M110 86L111 87L110 86z"/>
<path style="fill:#f0af95; stroke:none;" d="M215 86L216 87L215 86z"/>
<path style="fill:#ffbb8c; stroke:none;" d="M111 87L112 88L111 87z"/>
<path style="fill:#ffa98b; stroke:none;" d="M217 87L218 88L217 87z"/>
<path style="fill:#fff8f2; stroke:none;" d="M72 88L73 89L72 88z"/>
<path style="fill:#fff7f2; stroke:none;" d="M113 88L114 89L113 88z"/>
<path style="fill:#ffdcd0; stroke:none;" d="M218 88L219 89L218 88z"/>
<path style="fill:#fff8f2; stroke:none;" d="M71 89L72 90L71 89z"/>
<path style="fill:#ffe4d0; stroke:none;" d="M100.667 89.3333C100.222 89.7778 101.278 89.7222 101.333 89.6667C101.778 89.2223 100.722 89.2777 100.667 89.3333z"/>
<path style="fill:#fff1e7; stroke:none;" d="M114 89L115 90L114 89z"/>
<path style="fill:#fff8f2; stroke:none;" d="M70 90L71 91L70 90z"/>
<path style="fill:#ffffff; stroke:none;" d="M100 90C96.7809 93.8819 92.2467 96.6953 87 96.642C83.449 96.6059 80.3871 94.6699 77 96.6435C66.5262 102.746 61.1822 115.816 51 122C53.8523 131.978 55.3708 137.629 53 148C59.5207 152.436 68.2093 161.728 76 163.252C81.5405 164.335 86.0756 159.84 92 161.97C97.0721 163.793 101.052 171.932 106.043 171.922C111.293 171.912 118.015 168.629 123 167C133.842 163.457 144.888 159.571 156 157C156.249 151.285 157.702 146.687 161 142C151.853 130.04 137.303 120.791 126 110.845C118.084 103.879 109.789 94.1446 100 90z"/>
<path style="fill:#ffeadc; stroke:none;" d="M102 90L103 91L102 90M115 90L116 91L115 90z"/>
<path style="fill:#fff8f2; stroke:none;" d="M69 91L70 92L69 91M99 91L100 92L99 91z"/>
<path style="fill:#fff7f2; stroke:none;" d="M103 91L104 92L103 91z"/>
<path style="fill:#ffd5ba; stroke:none;" d="M116 91L117 92L116 91z"/>
<path style="fill:#fff8f2; stroke:none;" d="M68 92L69 93L68 92M98 92L99 93L98 92z"/>
<path style="fill:#fff7f2; stroke:none;" d="M104 92L105 93L104 92z"/>
<path style="fill:#ffcfaf; stroke:none;" d="M117 92L118 93L117 92z"/>
<path style="fill:#fff8f2; stroke:none;" d="M67 93L68 94L67 93z"/>
<path style="fill:#ffcba3; stroke:none;" d="M96 93L97 94L96 93z"/>
<path style="fill:#ffbc8c; stroke:none;" d="M106 93L107 94L106 93z"/>
<path style="fill:#ffba8d; stroke:none;" d="M118 93L119 94L118 93z"/>
<path style="fill:#fff8f2; stroke:none;" d="M66 94L67 95L66 94z"/>
<path style="fill:#ffc08c; stroke:none;" d="M78 94L79 95L78 94z"/>
<path style="fill:#fff2e7; stroke:none;" d="M79 94L80 95L79 94z"/>
<path style="fill:#ffc08c; stroke:none;" d="M80 94L81 95L80 94z"/>
<path style="fill:#ffbe8c; stroke:none;" d="M94 94L95 95L94 94z"/>
<path style="fill:#fff1e7; stroke:none;" d="M95 94L96 95L95 94z"/>
<path style="fill:#ffd6ba; stroke:none;" d="M107 94L108 95L107 94z"/>
<path style="fill:#fff7f2; stroke:none;" d="M120 94L121 95L120 94z"/>
<path style="fill:#fff8f2; stroke:none;" d="M65 95L66 96L65 95z"/>
<path style="fill:#ffc08b; stroke:none;" d="M77 95L78 96L77 95z"/>
<path style="fill:#fff2e7; stroke:none;" d="M81 95L82 96L81 95z"/>
<path style="fill:#fff1e7; stroke:none;" d="M92.6667 95.3333C92.2222 95.7778 93.2778 95.7222 93.3333 95.6667C93.7778 95.2222 92.7222 95.2778 92.6667 95.3333z"/>
<path style="fill:#ffd6ba; stroke:none;" d="M108 95L109 96L108 95z"/>
<path style="fill:#fff7f2; stroke:none;" d="M121 95L122 96L121 95z"/>
<path style="fill:#fff8f2; stroke:none;" d="M64 96L65 97L64 96z"/>
<path style="fill:#ffc18c; stroke:none;" d="M76 96L77 97L76 96z"/>
<path style="fill:#ffe5d0; stroke:none;" d="M84 96C86.0521 96.8742 87.7472 96.9528 90 97C87.9479 96.1258 86.2528 96.0472 84 96z"/>
<path style="fill:#ffeadc; stroke:none;" d="M109 96L110 97L109 96z"/>
<path style="fill:#ffe9db; stroke:none;" d="M122 96L123 97L122 96z"/>
<path style="fill:#fff8f2; stroke:none;" d="M63 97L64 98L63 97z"/>
<path style="fill:#ffc18b; stroke:none;" d="M75 97L76 98L75 97z"/>
<path style="fill:#fff1e7; stroke:none;" d="M110 97L111 98L110 97z"/>
<path style="fill:#ffdbc5; stroke:none;" d="M123 97L124 98L123 97z"/>
<path style="fill:#fff8f2; stroke:none;" d="M62 98L63 99L62 98z"/>
<path style="fill:#ffc18c; stroke:none;" d="M74 98L75 99L74 98z"/>
<path style="fill:#fff7f2; stroke:none;" d="M111 98L112 99L111 98z"/>
<path style="fill:#ffd4b9; stroke:none;" d="M124 98L125 99L124 98z"/>
<path style="fill:#fff8f2; stroke:none;" d="M61 99L62 100L61 99z"/>
<path style="fill:#ffc18c; stroke:none;" d="M73 99L74 100L73 99z"/>
<path style="fill:#ffbb8b; stroke:none;" d="M113 99L114 100L113 99z"/>
<path style="fill:#ffc098; stroke:none;" d="M125 99L126 100L125 99z"/>
<path style="fill:#fff8f2; stroke:none;" d="M60 100C55.5017 104.498 50.6688 108.792 47 114C51.5367 110.804 58.6599 105.529 60 100z"/>
<path style="fill:#ffc18c; stroke:none;" d="M72 100L73 101L72 100z"/>
<path style="fill:#ffc8a2; stroke:none;" d="M114 100L115 101L114 100z"/>
<path style="fill:#ffb98c; stroke:none;" d="M126 100L127 101L126 100z"/>
<path style="fill:#fff7f2; stroke:none;" d="M127 100L128 101L127 100z"/>
<path style="fill:#ffa449; stroke:none;" d="M60 101C54.5383 106.462 49.3234 112.546 43 117C44.4725 129.036 44.6743 143.989 43 156C44.9522 155.489 45.457 155.267 47 154C52.9861 158.614 59.2278 163.631 66 167C65.7761 163.615 65.6322 160.379 66 157C61.2705 154.081 56.9823 150.478 52 148C54.2003 142.786 54.6501 136.623 53.7863 131C53.3951 128.453 51.4322 125.681 51.838 123.09C53.0917 115.081 70.6018 109.503 60 101z"/>
<path style="fill:#ffc18c; stroke:none;" d="M71 101L72 102L71 101z"/>
<path style="fill:#ffd5b9; stroke:none;" d="M115 101L116 102L115 101z"/>
<path style="fill:#fff7f2; stroke:none;" d="M128 101L129 102L128 101z"/>
<path style="fill:#ffc18c; stroke:none;" d="M70 102L71 103L70 102z"/>
<path style="fill:#ffe3d0; stroke:none;" d="M116 102L117 103L116 102z"/>
<path style="fill:#ffe9dc; stroke:none;" d="M129 102L130 103L129 102z"/>
<path style="fill:#ffc18c; stroke:none;" d="M69 103L70 104L69 103z"/>
<path style="fill:#ffeadb; stroke:none;" d="M117 103L118 104L117 103z"/>
<path style="fill:#ffe2d0; stroke:none;" d="M130 103L131 104L130 103z"/>
<path style="fill:#ffc28c; stroke:none;" d="M68 104L69 105L68 104z"/>
<path style="fill:#fff7f2; stroke:none;" d="M118 104L119 105L118 104z"/>
<path style="fill:#f28845; stroke:none;" d="M125 106C126.433 109.183 127.969 111.242 131 113L130 109L134 110L131 104C128.828 104.464 127.042 105.105 125 106z"/>
<path style="fill:#ffd4ba; stroke:none;" d="M131 104L132 105L131 104z"/>
<path style="fill:#ffc28c; stroke:none;" d="M67 105L68 106L67 105z"/>
<path style="fill:#fff7f2; stroke:none;" d="M119 105L120 106L119 105z"/>
<path style="fill:#ffb98c; stroke:none;" d="M120 105L121 106L120 105z"/>
<path style="fill:#ff8648; stroke:none;" d="M131 105L134 110L130 109C130.889 115.6 135.203 118.623 140 122.845C147.039 129.04 154.045 136.024 162 141C160.127 143.506 158.379 145.926 157.557 149C156.898 151.462 157.253 154.443 155.397 156.437C153.068 158.939 148.145 159.653 145 160.656C136.74 163.29 128.343 165.632 120 168L120 176C133.501 172.905 146.813 168.217 160 164C161.858 169.415 165.751 172.075 171 174C169.07 168.887 169.667 163.395 169.667 158C169.667 150.77 169.001 143.166 170 136C155.007 129.318 145.204 113.209 131 105z"/>
<path style="fill:#ffc6a4; stroke:none;" d="M132 105L133 106L132 105z"/>
<path style="fill:#ffc28c; stroke:none;" d="M66 106L67 107L66 106z"/>
<path style="fill:#ffb98c; stroke:none;" d="M121 106L122 107L121 106z"/>
<path style="fill:#ffb88d; stroke:none;" d="M133 106L134 107L133 106z"/>
<path style="fill:#ffc28c; stroke:none;" d="M65 107L66 108L65 107z"/>
<path style="fill:#ffd5ba; stroke:none;" d="M122 107L123 108L122 107z"/>
<path style="fill:#fff7f2; stroke:none;" d="M135 107L136 108L135 107z"/>
<path style="fill:#ffc38c; stroke:none;" d="M64 108L65 109L64 108z"/>
<path style="fill:#ffdcc5; stroke:none;" d="M123 108L124 109L123 108z"/>
<path style="fill:#ffe9db; stroke:none;" d="M136 108L137 109L136 108z"/>
<path style="fill:#ffc38c; stroke:none;" d="M63 109L64 110L63 109z"/>
<path style="fill:#fbe5d8; stroke:none;" d="M124 109L125 110L124 109z"/>
<path style="fill:#ffe8db; stroke:none;" d="M137 109L138 110L137 109z"/>
<path style="fill:#ffc38c; stroke:none;" d="M62 110L63 111L62 110z"/>
<path style="fill:#f5e6dd; stroke:none;" d="M125 110L126 111L125 110z"/>
<path style="fill:#ffd3b9; stroke:none;" d="M138 110L139 111L138 110z"/>
<path style="fill:#ffc38c; stroke:none;" d="M61 111L62 112L61 111z"/>
<path style="fill:#efe7e2; stroke:none;" d="M126 111L127 112L126 111z"/>
<path style="fill:#ffccae; stroke:none;" d="M139 111L140 112L139 111z"/>
<path style="fill:#ffe9d1; stroke:none;" d="M26 112C28.6127 113.098 31.1645 112.993 34 113C31.3873 111.902 28.8355 112.007 26 112z"/>
<path style="fill:#ffc38c; stroke:none;" d="M60 112L61 113L60 112z"/>
<path style="fill:#f2f2f2; stroke:none;" d="M127 112L128 113L127 112z"/>
<path style="fill:#ffb88b; stroke:none;" d="M128 112L129 113L128 112z"/>
<path style="fill:#ffb78c; stroke:none;" d="M140 112L141 113L140 112z"/>
<path style="fill:#ffffff; stroke:none;" d="M22 113L23 114L22 113z"/>
<path style="fill:#ffcf98; stroke:none;" d="M23.6667 113.333C23.2223 113.778 24.2778 113.722 24.3333 113.667C24.7778 113.222 23.7222 113.278 23.6667 113.333z"/>
<path style="fill:#ffa749; stroke:none;" d="M21 114C22.0346 124.54 21.3333 135.413 21.3333 146C21.3333 149.403 20.1094 155.905 22.2701 158.751C26.8877 164.833 39.8327 159.426 45 157C43.1688 154.07 43.6667 150.827 43.6667 147.333L43.6667 124.667C43.6667 122.296 44.457 118.203 42.6667 116.333C40.52 114.091 35.9703 113.124 33 113C28.8334 112.826 25.0626 113.679 21 114z"/>
<path style="fill:#ffe9d1; stroke:none;" d="M36 113C37.2483 113.685 37.5484 113.749 39 114C37.7517 113.315 37.4516 113.251 36 113z"/>
<path style="fill:#ffc38c; stroke:none;" d="M59 113L60 114L59 113z"/>
<path style="fill:#ffc6a2; stroke:none;" d="M129 113L130 114L129 113z"/>
<path style="fill:#fff7f2; stroke:none;" d="M142 113L143 114L142 113z"/>
<path style="fill:#ffe9d0; stroke:none;" d="M20 114L21 115L20 114z"/>
<path style="fill:#ffd3a4; stroke:none;" d="M39 114L40 115L39 114z"/>
<path style="fill:#fff3e7; stroke:none;" d="M40 114L41 115L40 114z"/>
<path style="fill:#fff9f2; stroke:none;" d="M46 114L47 115L46 114z"/>
<path style="fill:#ffc38c; stroke:none;" d="M58 114L59 115L58 114z"/>
<path style="fill:#ffd4b9; stroke:none;" d="M130 114L131 115L130 114z"/>
<path style="fill:#fff7f2; stroke:none;" d="M143 114L144 115L143 114z"/>
<path style="fill:#fff4e7; stroke:none;" d="M18 115L19 116L18 115z"/>
<path style="fill:#ffae4a; stroke:none;" d="M9 126C6.08325 124.34 3.17672 123.082 0 122C0.0213604 128.044 0.847956 131.151 7 133C6.27248 137.409 6.39093 141.748 7.96605 146C9.14011 149.169 12.3195 152.43 11.6119 156C10.4416 161.903 4.25224 166.744 1.56867 172C-0.743842 176.53 0 182.068 0 187C5.53773 182.081 9.2408 175.124 13.3333 169C15.6895 165.474 17.7953 161.296 22 160C21.0081 149.895 21.6667 139.483 21.6667 129.333C21.6667 124.637 22.2519 119.541 21 115C15.5582 117.108 11.6788 120.84 9 126z"/>
<path style="fill:#ffc78d; stroke:none;" d="M41 115L42 116L41 115z"/>
<path style="fill:#fff9f2; stroke:none;" d="M42 115L43 116L42 115M45 115L46 116L45 115z"/>
<path style="fill:#ffc38c; stroke:none;" d="M57 115L58 116L57 115z"/>
<path style="fill:#ffe9db; stroke:none;" d="M131 115L132 116L131 115z"/>
<path style="fill:#ffe8db; stroke:none;" d="M144 115L145 116L144 115z"/>
<path style="fill:#fff9f2; stroke:none;" d="M16 116L17 117L16 116z"/>
<path style="fill:#ffd099; stroke:none;" d="M17 116L18 117L17 116z"/>
<path style="fill:#ffd8af; stroke:none;" d="M43 116L44 117L43 116z"/>
<path style="fill:#fff9f2; stroke:none;" d="M44 116L45 117L44 116z"/>
<path style="fill:#ffc48c; stroke:none;" d="M56 116L57 117L56 116z"/>
<path style="fill:#ffe9db; stroke:none;" d="M132 116L133 117L132 116z"/>
<path style="fill:#ffdac5; stroke:none;" d="M145 116L146 117L145 116z"/>
<path style="fill:#ffefdc; stroke:none;" d="M15 117L16 118L15 117z"/>
<path style="fill:#fdfdfd; stroke:none;" d="M56 117L57 118L56 117z"/>
<path style="fill:#fff7f2; stroke:none;" d="M133 117L134 118L133 117z"/>
<path style="fill:#ffd2b9; stroke:none;" d="M146 117L147 118L146 117z"/>
<path style="fill:#e0e5e4; stroke:none;" d="M181 117L181 121C182.797 121 182.522 120.986 184 120L184 118L183 117L181 117z"/>
<path style="fill:#ffdfba; stroke:none;" d="M14 118L15 119L14 118z"/>
<path style="fill:#eef1f0; stroke:none;" d="M55 118C53.8137 119.186 53.4721 119.584 53 121C54.9943 120.153 55.699 119.993 55 118z"/>
<path style="fill:#fff7f2; stroke:none;" d="M134 118L135 119L134 118z"/>
<path style="fill:#ffb78c; stroke:none;" d="M135 118L136 119L135 118z"/>
<path style="fill:#ffb58d; stroke:none;" d="M147 118L148 119L147 118z"/>
<path style="fill:#f6f8f7; stroke:none;" d="M148 118L149 119L148 118z"/>
<path style="fill:#ffdfba; stroke:none;" d="M13 119L14 120L13 119z"/>
<path style="fill:#ffb78b; stroke:none;" d="M136 119L137 120L136 119z"/>
<path style="fill:#d3dad8; stroke:none;" d="M149 119C149.545 120.635 149.365 120.455 151 121L151 119L149 119z"/>
<path style="fill:#ffe0ba; stroke:none;" d="M12 120L13 121L12 120z"/>
<path style="fill:#fec48c; stroke:none;" d="M52 120L53 121L52 120z"/>
<path style="fill:#ffd3ba; stroke:none;" d="M137 120L138 121L137 120z"/>
<path style="fill:#fff4e7; stroke:none;" d="M0 121L1 122L0 121z"/>
<path style="fill:#ffefdc; stroke:none;" d="M11 121L12 122L11 121z"/>
<path style="fill:#ffc58c; stroke:none;" d="M51 121L52 122L51 121z"/>
<path style="fill:#ffdac5; stroke:none;" d="M138 121L139 122L138 121z"/>
<path style="fill:#ffe8db; stroke:none;" d="M151 121L152 122L151 121z"/>
<path style="fill:#ffce8d; stroke:none;" d="M1 122L2 123L1 122z"/>
<path style="fill:#fff4e7; stroke:none;" d="M2 122L3 123L2 122z"/>
<path style="fill:#fff9f2; stroke:none;" d="M10 122L11 123L10 122z"/>
<path style="fill:#ffcb97; stroke:none;" d="M50.3333 122.667C50.2778 122.722 50.2222 123.778 50.6667 123.333C50.7222 123.278 50.7778 122.222 50.3333 122.667z"/>
<path style="fill:#ffe8dc; stroke:none;" d="M139 122L140 123L139 122z"/>
<path style="fill:#ffe1d0; stroke:none;" d="M152 122L153 123L152 122z"/>
<path style="fill:#ffead1; stroke:none;" d="M4 123L5 124L4 123z"/>
<path style="fill:#fff0e7; stroke:none;" d="M140 123L141 124L140 123z"/>
<path style="fill:#ffd1b9; stroke:none;" d="M153 123L154 124L153 123z"/>
<path style="fill:#ffe1ba; stroke:none;" d="M6 124L7 125L6 124z"/>
<path style="fill:#ffffff; stroke:none;" d="M7 124L8 125L7 124z"/>
<path style="fill:#ffe5c5; stroke:none;" d="M9 124L10 125L9 124z"/>
<path style="fill:#ffeddc; stroke:none;" d="M51 124L52 125L51 124z"/>
<path style="fill:#fff7f2; stroke:none;" d="M141 124L142 125L141 124z"/>
<path style="fill:#ffbc98; stroke:none;" d="M154 124L155 125L154 124z"/>
<path style="fill:#ffd7a4; stroke:none;" d="M8 125L9 126L8 125z"/>
<path style="fill:#ffb68b; stroke:none;" d="M143 125L144 126L143 125z"/>
<path style="fill:#ffb48c; stroke:none;" d="M155 125L156 126L155 125z"/>
<path style="fill:#ffe1c5; stroke:none;" d="M52 126L53 127L52 126z"/>
<path style="fill:#ffcbae; stroke:none;" d="M144 126L145 127L144 126z"/>
<path style="fill:#fff7f2; stroke:none;" d="M157 126L158 127L157 126z"/>
<path style="fill:#ffd2b9; stroke:none;" d="M145 127L146 128L145 127z"/>
<path style="fill:#ffe8db; stroke:none;" d="M158 127L159 128L158 127z"/>
<path style="fill:#fff3e7; stroke:none;" d="M53 128L54 129L53 128z"/>
<path style="fill:#ffe8db; stroke:none;" d="M146 128L147 129L146 128z"/>
<path style="fill:#ffe8dc; stroke:none;" d="M159 128L160 129L159 128z"/>
<path style="fill:#ffe8db; stroke:none;" d="M147 129L148 130L147 129z"/>
<path style="fill:#ffd1b9; stroke:none;" d="M160 129L161 130L160 129z"/>
<path style="fill:#ffd7a3; stroke:none;" d="M0 130L1 131L0 130z"/>
<path style="fill:#fff7f2; stroke:none;" d="M148 130L149 131L148 130z"/>
<path style="fill:#ffcaaf; stroke:none;" d="M161 130L162 131L161 130z"/>
<path style="fill:#ffffff; stroke:none;" d="M0 131L0 173C3.73669 169.098 12.0249 159.739 11.2153 154C10.7194 150.485 7.78342 147.444 6.78935 144C5.0647 138.025 6.73892 133.698 0 131z"/>
<path style="fill:#ffe1ba; stroke:none;" d="M2 131L3 132L2 131z"/>
<path style="fill:#ffd0a3; stroke:none;" d="M54 131L54 135C54.7102 133.241 54.7102 132.759 54 131z"/>
<path style="fill:#fff7f2; stroke:none;" d="M149 131L150 132L149 131z"/>
<path style="fill:#ffb48b; stroke:none;" d="M150 131L151 132L150 131z"/>
<path style="fill:#ffb38c; stroke:none;" d="M162 131L163 132L162 131z"/>
<path style="fill:#ffe6c5; stroke:none;" d="M3.66667 132.333C3.22223 132.778 4.27778 132.722 4.33333 132.667C4.77778 132.222 3.72221 132.278 3.66667 132.333z"/>
<path style="fill:#ffbc97; stroke:none;" d="M151 132L152 133L151 132z"/>
<path style="fill:#fff6f2; stroke:none;" d="M164 132L165 133L164 132z"/>
<path style="fill:#ffffff; stroke:none;" d="M5 133L6 134L5 133z"/>
<path style="fill:#ffc275; stroke:none;" d="M6 133L6 136C6.69611 134.446 6.6961 134.554 6 133z"/>
<path style="fill:#ffd2b9; stroke:none;" d="M152 133L153 134L152 133z"/>
<path style="fill:#ffefe7; stroke:none;" d="M165 133L166 134L165 133z"/>
<path style="fill:#ffd9c5; stroke:none;" d="M153 134L154 135L153 134z"/>
<path style="fill:#ffe7db; stroke:none;" d="M166 134L167 135L166 134z"/>
<path style="fill:#ffe0d1; stroke:none;" d="M172.667 134.333C172.222 134.778 173.278 134.722 173.333 134.667C173.778 134.222 172.722 134.278 172.667 134.333z"/>
<path style="fill:#ffe6db; stroke:none;" d="M181 134L182 135L181 134z"/>
<path style="fill:#ffb875; stroke:none;" d="M54 135L54 139C54.7102 137.241 54.7102 136.759 54 135z"/>
<path style="fill:#ffe8db; stroke:none;" d="M154 135L155 136L154 135z"/>
<path style="fill:#ffd0b9; stroke:none;" d="M167 135L168 136L167 135z"/>
<path style="fill:#ffefe7; stroke:none;" d="M169 135L170 136L169 135z"/>
<path style="fill:#fff6f2; stroke:none;" d="M184.667 135.333C184.222 135.778 185.278 135.722 185.333 135.667C185.778 135.222 184.722 135.278 184.667 135.333z"/>
<path style="fill:#fff7f2; stroke:none;" d="M155 136L156 137L155 136z"/>
<path style="fill:#ffb798; stroke:none;" d="M186 136L187 137L186 136z"/>
<path style="fill:#ffeee7; stroke:none;" d="M187 136L188 137L187 136z"/>
<path style="fill:#fff7f2; stroke:none;" d="M156 137L157 138L156 137z"/>
<path style="fill:#ffbfa3; stroke:none;" d="M188 137L189 138L188 137z"/>
<path style="fill:#ffffff; stroke:none;" d="M189 137L190 138L189 137z"/>
<path style="fill:#ffb38b; stroke:none;" d="M158 138L159 139L158 138z"/>
<path style="fill:#ffe6db; stroke:none;" d="M190 138L191 139L190 138z"/>
<path style="fill:#ffc275; stroke:none;" d="M6.33333 139.667C6.2778 139.722 6.22221 140.778 6.66667 140.333C6.72224 140.278 6.77777 139.222 6.33333 139.667z"/>
<path style="fill:#ffd0a3; stroke:none;" d="M54.3333 139.667C54.2778 139.722 54.2222 140.778 54.6667 140.333C54.7222 140.278 54.7778 139.222 54.3333 139.667z"/>
<path style="fill:#ffc9ae; stroke:none;" d="M159 139L160 140L159 139z"/>
<path style="fill:#ffe6db; stroke:none;" d="M191 139L192 140L191 139z"/>
<path style="fill:#ffd1b9; stroke:none;" d="M160 140L161 141L160 140z"/>
<path style="fill:#ffe6db; stroke:none;" d="M192 140L193 141L192 140z"/>
<path style="fill:#ffe5c5; stroke:none;" d="M6 141L6 144C6.69611 142.446 6.6961 142.554 6 141z"/>
<path style="fill:#fff3e7; stroke:none;" d="M54.3333 141.667C54.2778 141.722 54.2222 142.778 54.6667 142.333C54.7222 142.278 54.7778 141.222 54.3333 141.667z"/>
<path style="fill:#ffc2a2; stroke:none;" d="M161 141L162 142L161 141z"/>
<path style="fill:#fff6f2; stroke:none;" d="M193 141L194 142L193 141z"/>
<path style="fill:#ffe0d0; stroke:none;" d="M160 142L161 143L160 142z"/>
<path style="fill:#fff6f2; stroke:none;" d="M159 143L160 144L159 143z"/>
<path style="fill:#ffc6ae; stroke:none;" d="M194 143L195 144L194 143z"/>
<path style="fill:#ffca97; stroke:none;" d="M53 144L54 145L53 144z"/>
<path style="fill:#ffbb97; stroke:none;" d="M159 144L160 145L159 144z"/>
<path style="fill:#fff6f2; stroke:none;" d="M195 144L196 145L195 144z"/>
<path style="fill:#fff9f2; stroke:none;" d="M7.33333 145.667C7.27777 145.722 7.22224 146.778 7.66667 146.333C7.72224 146.278 7.77777 145.222 7.33333 145.667z"/>
<path style="fill:#fff3e7; stroke:none;" d="M53 145L54 146L53 145z"/>
<path style="fill:#ffefe7; stroke:none;" d="M158 145L159 146L158 145z"/>
<path style="fill:#ffbda2; stroke:none;" d="M195 145L196 146L195 145z"/>
<path style="fill:#ffcc8d; stroke:none;" d="M8 147L9 148L8 147z"/>
<path style="fill:#ffdcba; stroke:none;" d="M52 147L53 148L52 147z"/>
<path style="fill:#ffd1ba; stroke:none;" d="M157.333 147.667C157.278 147.722 157.222 148.778 157.667 148.333C157.722 148.278 157.778 147.222 157.333 147.667z"/>
<path style="fill:#ffad8b; stroke:none;" d="M196.333 147.667C196.278 147.722 196.222 148.778 196.667 148.333C196.722 148.278 196.778 147.222 196.333 147.667z"/>
<path style="fill:#fff4e7; stroke:none;" d="M8 148L9 149L8 148z"/>
<path style="fill:#ffd6af; stroke:none;" d="M53 148L54 149L53 148z"/>
<path style="fill:#ffd6a3; stroke:none;" d="M9 149L10 150L9 149z"/>
<path style="fill:#f5f0ea; stroke:none;" d="M55 149L56 150L55 149z"/>
<path style="fill:#e2e7e5; stroke:none;" d="M148 150L148 152C150.201 152.481 150.799 152.481 153 152L152 149L148 150M212 150L212 152C214.201 152.481 214.799 152.481 217 152L217 150C214.799 149.519 214.201 149.519 212 150z"/>
<path style="fill:#ffffff; stroke:none;" d="M9 150L10 151L9 150z"/>
<path style="fill:#faddc1; stroke:none;" d="M56 150L57 151L56 150z"/>
<path style="fill:#ffddd0; stroke:none;" d="M197 150L197 153C197.696 151.446 197.696 151.554 197 150z"/>
<path style="fill:#ffefdc; stroke:none;" d="M10 151L11 152L10 151z"/>
<path style="fill:#ffca98; stroke:none;" d="M57 151L58 152L57 151z"/>
<path style="fill:#fff8f2; stroke:none;" d="M58 151L59 152L58 151z"/>
<path style="fill:#ffe0d0; stroke:none;" d="M156 151L156 157C156.951 154.715 156.951 153.285 156 151z"/>
<path style="fill:#ffe0ba; stroke:none;" d="M11 152L12 153L11 152z"/>
<path style="fill:#ffeddc; stroke:none;" d="M59 152L60 153L59 152z"/>
<path style="fill:#ffdbaf; stroke:none;" d="M12 153L13 154L12 153z"/>
<path style="fill:#ffd0a4; stroke:none;" d="M60 153L61 154L60 153z"/>
<path style="fill:#ffbda2; stroke:none;" d="M197 153L197 156C197.696 154.446 197.696 154.554 197 153z"/>
<path style="fill:#ffefdc; stroke:none;" d="M12.3333 154.667C12.2778 154.722 12.2222 155.778 12.6667 155.333C12.7222 155.278 12.7778 154.222 12.3333 154.667z"/>
<path style="fill:#ffd1a3; stroke:none;" d="M47 154L48 155L47 154z"/>
<path style="fill:#fff2e7; stroke:none;" d="M62 154L63 155L62 154z"/>
<path style="fill:#ffdcba; stroke:none;" d="M46 155L47 156L46 155z"/>
<path style="fill:#ffffff; stroke:none;" d="M0 219L219 219C219 215.462 219.505 211.46 218.686 208C216.07 196.95 208.091 189.15 200 181.83C197.007 179.122 193.918 174.609 190 173.241C187.287 172.294 184.569 174.014 182 174.696C178.669 175.58 175.329 175.629 172 174.692C166.614 173.176 162.162 166.037 156.961 165.836C153.167 165.689 148.62 168.099 145 169.141C135.295 171.936 125.645 175.029 116 178.025C112.295 179.176 107.404 180.032 104.375 182.563C98.4398 187.524 95.928 194.128 87 193.944C79.8509 193.798 73.3978 189.009 71.5579 182C70.7058 178.754 71.5718 175.083 69.9722 172.04C67.01 166.404 56.6194 160.004 51 157.191C45.581 154.479 39.4835 160.507 34 161.532C29.6915 162.338 23.9846 159.588 20.1736 161.212C15.9796 162.999 13.076 169.388 10.6667 173C7.36895 177.944 2.54289 183.294 0.712963 189C-2.07158 197.682 0 209.916 0 219z"/>
<path style="fill:#fff8f2; stroke:none;" d="M48 155L49 156L48 155z"/>
<path style="fill:#ffe0c5; stroke:none;" d="M63 155L64 156L63 155z"/>
<path style="fill:#ffffff; stroke:none;" d="M11 156L12 157L11 156z"/>
<path style="fill:#ffeddc; stroke:none;" d="M45 156L46 157L45 156z"/>
<path style="fill:#ffd6ae; stroke:none;" d="M50 156L51 157L50 156z"/>
<path style="fill:#ffc38d; stroke:none;" d="M64 156L65 157L64 156z"/>
<path style="fill:#fff8f2; stroke:none;" d="M65 156L66 157L65 156z"/>
<path style="fill:#ffddd0; stroke:none;" d="M197 156L197 159C197.696 157.446 197.696 157.554 197 156z"/>
<path style="fill:#ffd6a3; stroke:none;" d="M11 157L12 158L11 157z"/>
<path style="fill:#ffcc97; stroke:none;" d="M43 157L44 158L43 157z"/>
<path style="fill:#fff9f2; stroke:none;" d="M44 157L45 158L44 157z"/>
<path style="fill:#fff3e7; stroke:none;" d="M51 157L52 158L51 157z"/>
<path style="fill:#ffecdc; stroke:none;" d="M66 157L67 158L66 157z"/>
<path style="fill:#ffcaae; stroke:none;" d="M153 157C154.248 157.685 154.548 157.749 156 158C154.752 157.315 154.452 157.251 153 157z"/>
<path style="fill:#ffefdc; stroke:none;" d="M10 158L11 159L10 158z"/>
<path style="fill:#ffeddc; stroke:none;" d="M42 158L43 159L42 158z"/>
<path style="fill:#ffd0a3; stroke:none;" d="M53 158L54 159L53 158z"/>
<path style="fill:#ff9c49; stroke:none;" d="M66 158C64.1056 165.649 69.1692 166.907 71.3117 173.174C72.6184 176.995 71.2481 181.071 73.0748 184.985C76.8866 193.154 88.4328 195.809 95.9846 191.143C99.9986 188.662 101.294 183.67 105.213 181.303C112.256 177.05 118.466 179.264 121 170C114.553 168.389 108.472 172.435 102 173C100.327 164.716 93.0075 161.215 85 162.185C82.3738 162.503 79.6635 163.943 77 163.664C73.1276 163.257 69.4763 159.652 66 158z"/>
<path style="fill:#ffcfa4; stroke:none;" d="M67 158L68 159L67 158z"/>
<path style="fill:#ffc4a4; stroke:none;" d="M150.667 158.333C150.222 158.778 151.278 158.722 151.333 158.667C151.778 158.222 150.722 158.278 150.667 158.333z"/>
<path style="fill:#ffffff; stroke:none;" d="M9 159L10 160L9 159z"/>
<path style="fill:#ffe4c5; stroke:none;" d="M20 159L21 160L20 159z"/>
<path style="fill:#ffc78c; stroke:none;" d="M39 159L40 160L39 159z"/>
<path style="fill:#ffe8d0; stroke:none;" d="M40 159L41 160L40 159z"/>
<path style="fill:#ffe7d0; stroke:none;" d="M54 159L55 160L54 159z"/>
<path style="fill:#fff2e7; stroke:none;" d="M69 159L70 160L69 159z"/>
<path style="fill:#ffbd98; stroke:none;" d="M147.667 159.333C147.222 159.778 148.278 159.722 148.333 159.667C148.778 159.222 147.722 159.278 147.667 159.333z"/>
<path style="fill:#ffd6a3; stroke:none;" d="M9 160L10 161L9 160z"/>
<path style="fill:#ffefdc; stroke:none;" d="M19 160L20 161L19 160z"/>
<path style="fill:#ffdfba; stroke:none;" d="M22.6667 160.333C22.2222 160.778 23.2778 160.722 23.3333 160.667C23.7778 160.222 22.7222 160.278 22.6667 160.333z"/>
<path style="fill:#ffddba; stroke:none;" d="M36 160C37.2483 160.685 37.5484 160.749 39 161C37.7516 160.315 37.4516 160.251 36 160z"/>
<path style="fill:#fff8f2; stroke:none;" d="M55 160L56 161L55 160z"/>
<path style="fill:#ffe0c5; stroke:none;" d="M70 160L71 161L70 160z"/>
<path style="fill:#ffdac5; stroke:none;" d="M143 160C144.248 160.685 144.548 160.749 146 161C144.752 160.315 144.452 160.251 143 160z"/>
<path style="fill:#ffad8b; stroke:none;" d="M196 160L197 161L196 160z"/>
<path style="fill:#ffefdc; stroke:none;" d="M8 161L9 162L8 161z"/>
<path style="fill:#ffdfba; stroke:none;" d="M18 161L19 162L18 161z"/>
<path style="fill:#ffe8d0; stroke:none;" d="M25 161C28.1633 162.327 31.5856 162 35 162C31.8367 160.673 28.4144 161 25 161z"/>
<path style="fill:#ffdbba; stroke:none;" d="M57 161L58 162L57 161z"/>
<path style="fill:#ede6e0; stroke:none;" d="M72 161L73 162L72 161z"/>
<path style="fill:#ffe6d1; stroke:none;" d="M83.6667 161.333C83.2222 161.778 84.2778 161.722 84.3333 161.667C84.7778 161.222 83.7222 161.278 83.6667 161.333z"/>
<path style="fill:#ffcca4; stroke:none;" d="M85 161C87.0521 161.874 88.7472 161.953 91 162C88.9479 161.126 87.2528 161.047 85 161z"/>
<path style="fill:#ffffff; stroke:none;" d="M91 161L92 162L91 161z"/>
<path style="fill:#ffd3ba; stroke:none;" d="M140 161C141.248 161.685 141.548 161.749 143 162C141.752 161.315 141.452 161.251 140 161z"/>
<path style="fill:#ffe6db; stroke:none;" d="M196 161L197 162L196 161z"/>
<path style="fill:#fff9f2; stroke:none;" d="M7 162L8 163L7 162z"/>
<path style="fill:#ffd098; stroke:none;" d="M17 162L18 163L17 162z"/>
<path style="fill:#fff2e7; stroke:none;" d="M58 162L59 163L58 162z"/>
<path style="fill:#feebdb; stroke:none;" d="M73 162L74 163L73 162z"/>
<path style="fill:#ffba81; stroke:none;" d="M81.6667 162.333C81.2222 162.778 82.2778 162.722 82.3333 162.667C82.7778 162.222 81.7222 162.278 81.6667 162.333z"/>
<path style="fill:#ffdfc6; stroke:none;" d="M93 162L94 163L93 162z"/>
<path style="fill:#ffccae; stroke:none;" d="M137.667 162.333C137.222 162.778 138.278 162.722 138.333 162.667C138.778 162.222 137.722 162.278 137.667 162.333z"/>
<path style="fill:#ffd197; stroke:none;" d="M7 163L8 164L7 163z"/>
<path style="fill:#ffffff; stroke:none;" d="M17 163L18 164L17 163z"/>
<path style="fill:#ffcfa3; stroke:none;" d="M60 163L61 164L60 163z"/>
<path style="fill:#ffcea4; stroke:none;" d="M74 163L75 164L74 163z"/>
<path style="fill:#fbd5b7; stroke:none;" d="M78.6667 163.333C78.2222 163.778 79.2778 163.722 79.3333 163.667C79.7778 163.222 78.7222 163.278 78.6667 163.333z"/>
<path style="fill:#ffdec5; stroke:none;" d="M95 163L96 164L95 163z"/>
<path style="fill:#ffe9db; stroke:none;" d="M134 163L135 164L134 163z"/>
<path style="fill:#ffcdb9; stroke:none;" d="M195 163L196 164L195 163z"/>
<path style="fill:#ffead0; stroke:none;" d="M6 164L7 165L6 164z"/>
<path style="fill:#ffefdc; stroke:none;" d="M16 164L17 165L16 164z"/>
<path style="fill:#ffe7d0; stroke:none;" d="M61 164L62 165L61 164z"/>
<path style="fill:#f6efe9; stroke:none;" d="M76.6667 164.333C76.2222 164.778 77.2778 164.722 77.3333 164.667C77.7778 164.222 76.7222 164.278 76.6667 164.333z"/>
<path style="fill:#fff8f2; stroke:none;" d="M97 164L98 165L97 164z"/>
<path style="fill:#ffb88c; stroke:none;" d="M131.667 164.333C131.222 164.778 132.278 164.722 132.333 164.667C132.778 164.222 131.722 164.278 131.667 164.333z"/>
<path style="fill:#ff9d6a; stroke:none;" d="M158.667 164.333C158.222 164.778 159.278 164.722 159.333 164.667C159.778 164.222 158.722 164.278 158.667 164.333z"/>
<path style="fill:#fff9f2; stroke:none;" d="M5 165L6 166L5 165z"/>
<path style="fill:#ffd5a3; stroke:none;" d="M15 165L16 166L15 165z"/>
<path style="fill:#fff8f2; stroke:none;" d="M62 165L63 166L62 165z"/>
<path style="fill:#fff1e7; stroke:none;" d="M98 165L99 166L98 165z"/>
<path style="fill:#ffd5ba; stroke:none;" d="M127.667 165.333C127.222 165.778 128.278 165.722 128.333 165.667C128.778 165.222 127.722 165.278 127.667 165.333z"/>
<path style="fill:#ffefe7; stroke:none;" d="M155.667 165.333C155.222 165.778 156.278 165.722 156.333 165.667C156.778 165.222 155.722 165.278 155.667 165.333z"/>
<path style="fill:#ffe7db; stroke:none;" d="M159 165L160 166L159 165z"/>
<path style="fill:#ffbda2; stroke:none;" d="M194 165L195 166L194 165z"/>
<path style="fill:#ffd298; stroke:none;" d="M5 166L6 167L5 166z"/>
<path style="fill:#ffdbba; stroke:none;" d="M64 166L65 167L64 166z"/>
<path style="fill:#ffebdc; stroke:none;" d="M99 166L100 167L99 166z"/>
<path style="fill:#ffceaf; stroke:none;" d="M124.667 166.333C124.222 166.778 125.278 166.722 125.333 166.667C125.778 166.222 124.722 166.278 124.667 166.333z"/>
<path style="fill:#ffd2b9; stroke:none;" d="M151 166C152.248 166.685 152.548 166.749 154 167C152.752 166.315 152.452 166.251 151 166z"/>
<path style="fill:#ffba97; stroke:none;" d="M160 166L161 167L160 166z"/>
<path style="fill:#ffc6ae; stroke:none;" d="M195 166L196 167L195 166z"/>
<path style="fill:#ffead1; stroke:none;" d="M4 167L5 168L4 167z"/>
<path style="fill:#ffefdc; stroke:none;" d="M14 167L15 168L14 167z"/>
<path style="fill:#fff2e7; stroke:none;" d="M65 167L66 168L65 167z"/>
<path style="fill:#fff8f2; stroke:none;" d="M100 167L101 168L100 167z"/>
<path style="fill:#ffe9db; stroke:none;" d="M121 167L122 168L121 167z"/>
<path style="fill:#ffd9c5; stroke:none;" d="M148 167C149.248 167.685 149.548 167.749 151 168C149.752 167.315 149.452 167.251 148 167z"/>
<path style="fill:#ffad8c; stroke:none;" d="M196 167L197 168L196 167z"/>
<path style="fill:#fff9f2; stroke:none;" d="M3 168L4 169L3 168z"/>
<path style="fill:#ffd6a3; stroke:none;" d="M13 168L14 169L13 168z"/>
<path style="fill:#fecda2; stroke:none;" d="M67 168L68 169L67 168z"/>
<path style="fill:#ffba8d; stroke:none;" d="M118.667 168.333C118.222 168.778 119.278 168.722 119.333 168.667C119.778 168.222 118.722 168.278 118.667 168.333z"/>
<path style="fill:#ffbd97; stroke:none;" d="M145 168L146 169L145 168z"/>
<path style="fill:#ffffff; stroke:none;" d="M146.667 168.333C146.222 168.778 147.278 168.722 147.333 168.667C147.778 168.222 146.722 168.278 146.667 168.333z"/>
<path style="fill:#fff7f2; stroke:none;" d="M161 168L162 169L161 168z"/>
<path style="fill:#ffad8c; stroke:none;" d="M197 168L198 169L197 168z"/>
<path style="fill:#fee5cf; stroke:none;" d="M68 169L69 170L68 169z"/>
<path style="fill:#ffe4d0; stroke:none;" d="M101 169L102 170L101 169z"/>
<path style="fill:#ffd6ba; stroke:none;" d="M114.667 169.333C114.222 169.778 115.278 169.722 115.333 169.667C115.778 169.222 114.722 169.278 114.667 169.333z"/>
<path style="fill:#fff0e7; stroke:none;" d="M142.667 169.333C142.222 169.778 143.278 169.722 143.333 169.667C143.778 169.222 142.722 169.278 142.667 169.333z"/>
<path style="fill:#fff6f2; stroke:none;" d="M162 169L163 170L162 169z"/>
<path style="fill:#ffad8c; stroke:none;" d="M198 169L199 170L198 169z"/>
<path style="fill:#ffffff; stroke:none;" d="M199 169L200 170L199 169z"/>
<path style="fill:#ffe6c5; stroke:none;" d="M2 170L3 171L2 170z"/>
<path style="fill:#fff4e7; stroke:none;" d="M12 170L13 171L12 170z"/>
<path style="fill:#fdf6f0; stroke:none;" d="M69 170L70 171L69 170z"/>
<path style="fill:#ffcfae; stroke:none;" d="M111.667 170.333C111.222 170.778 112.278 170.722 112.333 170.667C112.778 170.222 111.722 170.278 111.667 170.333z"/>
<path style="fill:#fff7f2; stroke:none;" d="M139.667 170.333C139.222 170.778 140.278 170.722 140.333 170.667C140.778 170.222 139.722 170.278 139.667 170.333z"/>
<path style="fill:#fff6f2; stroke:none;" d="M163 170L164 171L163 170M200 170L201 171L200 170z"/>
<path style="fill:#fff9f2; stroke:none;" d="M1 171L2 172L1 171z"/>
<path style="fill:#ffdbae; stroke:none;" d="M11 171L12 172L11 171z"/>
<path style="fill:#fdfdfd; stroke:none;" d="M70 171L71 172L70 171z"/>
<path style="fill:#ffe0c5; stroke:none;" d="M71 171L71 174C71.6961 172.446 71.6961 172.554 71 171z"/>
<path style="fill:#ffbc8c; stroke:none;" d="M102.333 171.667C102.278 171.722 102.222 172.778 102.667 172.333C102.722 172.278 102.778 171.222 102.333 171.667z"/>
<path style="fill:#ffc9a3; stroke:none;" d="M108.667 171.333C108.222 171.778 109.278 171.722 109.333 171.667C109.778 171.222 108.722 171.278 108.667 171.333z"/>
<path style="fill:#ffdac5; stroke:none;" d="M135 171C136.248 171.685 136.548 171.749 138 172C136.752 171.315 136.452 171.251 135 171z"/>
<path style="fill:#ffc9ae; stroke:none;" d="M165 171L166 172L165 171z"/>
<path style="fill:#ffae8b; stroke:none;" d="M188.667 171.333C188.222 171.778 189.278 171.722 189.333 171.667C189.778 171.222 188.722 171.278 188.667 171.333z"/>
<path style="fill:#fff6f2; stroke:none;" d="M201 171L202 172L201 171z"/>
<path style="fill:#ffffff; stroke:none;" d="M103 172L104 173L103 172z"/>
<path style="fill:#ffc398; stroke:none;" d="M105.667 172.333C105.222 172.778 106.278 172.722 106.333 172.667C106.778 172.222 105.722 172.278 105.667 172.333z"/>
<path style="fill:#ffe2d0; stroke:none;" d="M132 172C133.248 172.685 133.548 172.749 135 173C133.752 172.315 133.452 172.251 132 172z"/>
<path style="fill:#ffefe7; stroke:none;" d="M166 172L167 173L166 172z"/>
<path style="fill:#ffb28b; stroke:none;" d="M167 172L168 173L167 172z"/>
<path style="fill:#ffeee7; stroke:none;" d="M187 172L188 173L187 172z"/>
<path style="fill:#ffb597; stroke:none;" d="M190 172L191 173L190 172z"/>
<path style="fill:#fff6f2; stroke:none;" d="M202 172L203 173L202 172z"/>
<path style="fill:#ffe6c5; stroke:none;" d="M0 173L1 174L0 173z"/>
<path style="fill:#fff4e7; stroke:none;" d="M10 173L11 174L10 173z"/>
<path style="fill:#ffe9dc; stroke:none;" d="M129.667 173.333C129.222 173.778 130.278 173.722 130.333 173.667C130.778 173.222 129.722 173.278 129.667 173.333z"/>
<path style="fill:#ffefe7; stroke:none;" d="M168 173L169 174L168 173z"/>
<path style="fill:#ffaf8b; stroke:none;" d="M184 173L185 174L184 173z"/>
<path style="fill:#ffeee7; stroke:none;" d="M185 173L186 174L185 173z"/>
<path style="fill:#ffceb9; stroke:none;" d="M191 173L192 174L191 173z"/>
<path style="fill:#f0d7ce; stroke:none;" d="M203 173L204 174L203 173z"/>
<path style="fill:#ffdbaf; stroke:none;" d="M9 174L10 175L9 174z"/>
<path style="fill:#ffb575; stroke:none;" d="M71 174L71 177C71.6961 175.446 71.6961 175.554 71 174z"/>
<path style="fill:#ffcdae; stroke:none;" d="M125 174C126.248 174.685 126.548 174.749 128 175C126.752 174.315 126.452 174.251 125 174z"/>
<path style="fill:#ffd8c5; stroke:none;" d="M170 174C171.248 174.685 171.548 174.749 173 175C171.752 174.315 171.452 174.251 170 174z"/>
<path style="fill:#ffdfd0; stroke:none;" d="M181 174C182.248 174.685 182.548 174.749 184 175C182.752 174.315 182.452 174.251 181 174z"/>
<path style="fill:#ffceb9; stroke:none;" d="M192 174L193 175L192 174z"/>
<path style="fill:#ee7243; stroke:none;" d="M201 174C202.106 176.513 203.523 178.677 205 181L207 181L208 180C206.347 176.564 204.678 175.041 201 174z"/>
<path style="fill:#ffe5db; stroke:none;" d="M204 174L205 175L204 174z"/>
<path style="fill:#ffd4b9; stroke:none;" d="M122 175C123.248 175.685 123.548 175.749 125 176C123.752 175.315 123.452 175.251 122 175z"/>
<path style="fill:#ffffff; stroke:none;" d="M175 175C176.506 175.683 177.315 175.826 179 176C177.494 175.317 176.685 175.174 175 175z"/>
<path style="fill:#ffcdb9; stroke:none;" d="M193 175L194 176L193 175z"/>
<path style="fill:#f1d8cf; stroke:none;" d="M205 175L206 176L205 175z"/>
<path style="fill:#fff4e7; stroke:none;" d="M8 176L9 177L8 176z"/>
<path style="fill:#ffdcc5; stroke:none;" d="M119 176C120.248 176.685 120.548 176.749 122 177C120.752 176.315 120.452 176.251 119 176z"/>
<path style="fill:#ffe6db; stroke:none;" d="M194 176L195 177L194 176z"/>
<path style="fill:#fdd2c3; stroke:none;" d="M206 176L207 177L206 176z"/>
<path style="fill:#ffe5c5; stroke:none;" d="M7 177L8 178L7 177z"/>
<path style="fill:#ffc197; stroke:none;" d="M116 177L117 178L116 177z"/>
<path style="fill:#ffeadb; stroke:none;" d="M117 177L118 178L117 177z"/>
<path style="fill:#ffe6db; stroke:none;" d="M195 177L196 178L195 177z"/>
<path style="fill:#ef7443; stroke:none;" d="M198 177C199.15 180.966 200.939 182.367 205 183L201 177L198 177z"/>
<path style="fill:#fac8b5; stroke:none;" d="M207 177L208 178L207 177z"/>
<path style="fill:#f1f1f1; stroke:none;" d="M208 177L209 178L208 177z"/>
<path style="fill:#fff1e7; stroke:none;" d="M113.667 178.333C113.222 178.778 114.278 178.722 114.333 178.667C114.778 178.222 113.722 178.278 113.667 178.333z"/>
<path style="fill:#fde4d9; stroke:none;" d="M196 178L197 179L196 178z"/>
<path style="fill:#f4c3b1; stroke:none;" d="M208 178L209 179L208 178z"/>
<path style="fill:#fff9f2; stroke:none;" d="M6 179L7 180L6 179z"/>
<path style="fill:#ffb575; stroke:none;" d="M71.3333 179.667C71.2778 179.722 71.2222 180.778 71.6667 180.333C71.7222 180.278 71.7778 179.222 71.3333 179.667z"/>
<path style="fill:#fff7f2; stroke:none;" d="M110.667 179.333C110.222 179.778 111.278 179.722 111.333 179.667C111.778 179.222 110.722 179.278 110.667 179.333z"/>
<path style="fill:#f0e0d9; stroke:none;" d="M197 179L198 180L197 179z"/>
<path style="fill:#ff7848; stroke:none;" d="M208 179L203 184C206.165 187.165 209.94 190.243 212.411 194C215.035 197.989 215.085 201.817 219 205C219 199.945 220.334 192.621 217.972 188.015C215.965 184.1 211.559 181.354 208 179z"/>
<path style="fill:#ffc4ae; stroke:none;" d="M209 179L210 180L209 179z"/>
<path style="fill:#ffe6c5; stroke:none;" d="M5 180L6 181L5 180z"/>
<path style="fill:#ffddc5; stroke:none;" d="M106 180C107.248 180.685 107.548 180.749 109 181C107.752 180.315 107.452 180.251 106 180z"/>
<path style="fill:#fef5f1; stroke:none;" d="M198 180L199 181L198 180z"/>
<path style="fill:#ffab8c; stroke:none;" d="M210 180L211 181L210 180z"/>
<path style="fill:#fff2e7; stroke:none;" d="M71.3333 181.667C71.2778 181.722 71.2222 182.778 71.6667 182.333C71.7222 182.278 71.7778 181.222 71.3333 181.667z"/>
<path style="fill:#ffc297; stroke:none;" d="M103 181L104 182L103 181z"/>
<path style="fill:#ffeadc; stroke:none;" d="M104 181L105 182L104 181z"/>
<path style="fill:#f3eae6; stroke:none;" d="M199 181L200 182L199 181z"/>
<path style="fill:#ffab8c; stroke:none;" d="M211 181L212 182L211 181z"/>
<path style="fill:#fdfdfd; stroke:none;" d="M212 181L213 182L212 181z"/>
<path style="fill:#fff9f2; stroke:none;" d="M4 182L5 183L4 182z"/>
<path style="fill:#ffffff; stroke:none;" d="M103 182L104 183L103 182z"/>
<path style="fill:#f8efeb; stroke:none;" d="M200 182L201 183L200 182z"/>
<path style="fill:#fba889; stroke:none;" d="M212 182L213 183L212 182z"/>
<path style="fill:#e2e7e5; stroke:none;" d="M213 182C214.103 183.457 214.543 183.897 216 185C215.518 182.636 215.364 182.482 213 182z"/>
<path style="fill:#ffe6c5; stroke:none;" d="M3 183L4 184L3 183z"/>
<path style="fill:#fff8f2; stroke:none;" d="M102.333 183.667C102.278 183.722 102.222 184.778 102.667 184.333C102.722 184.278 102.778 183.222 102.333 183.667z"/>
<path style="fill:#fdfdfd; stroke:none;" d="M201 183L202 184L201 183z"/>
<path style="fill:#ffac8b; stroke:none;" d="M202 183L203 184L202 183z"/>
<path style="fill:#ffd297; stroke:none;" d="M2 184L3 185L2 184z"/>
<path style="fill:#ffdaba; stroke:none;" d="M72 184L73 185L72 184z"/>
<path style="fill:#ffac8b; stroke:none;" d="M203 184L204 185L203 184z"/>
<path style="fill:#fff9f2; stroke:none;" d="M2 185L3 186L2 185z"/>
<path style="fill:#ffffff; stroke:none;" d="M72 185L73 186L72 185z"/>
<path style="fill:#ffcaa2; stroke:none;" d="M101 185L102 186L101 185z"/>
<path style="fill:#ffb497; stroke:none;" d="M204 185L205 186L204 185z"/>
<path style="fill:#fff6f2; stroke:none;" d="M216 185L217 186L216 185z"/>
<path style="fill:#ffebd1; stroke:none;" d="M1 186L2 187L1 186z"/>
<path style="fill:#ffe0c5; stroke:none;" d="M73 186L74 187L73 186z"/>
<path style="fill:#fff8f2; stroke:none;" d="M101 186L102 187L101 186z"/>
<path style="fill:#ffccb9; stroke:none;" d="M205 186L206 187L205 186z"/>
<path style="fill:#ffe5db; stroke:none;" d="M217 186L218 187L217 186z"/>
<path style="fill:#ffd298; stroke:none;" d="M0 187L1 188L0 187z"/>
<path style="fill:#ffc18c; stroke:none;" d="M74 187L75 188L74 187z"/>
<path style="fill:#ffebdc; stroke:none;" d="M100 187L101 188L100 187z"/>
<path style="fill:#ffccb9; stroke:none;" d="M206 187L207 188L206 187z"/>
<path style="fill:#ffbba3; stroke:none;" d="M218 187L219 188L218 187z"/>
<path style="fill:#fff9f2; stroke:none;" d="M0 188L1 189L0 188z"/>
<path style="fill:#ffffff; stroke:none;" d="M74 188L75 189L74 188z"/>
<path style="fill:#ffd7ba; stroke:none;" d="M99 188L100 189L99 188z"/>
<path style="fill:#ffccb9; stroke:none;" d="M207 188L208 189L207 188z"/>
<path style="fill:#fff8f2; stroke:none;" d="M75 189L76 190L75 189z"/>
<path style="fill:#ffd7ba; stroke:none;" d="M98 189L99 190L98 189z"/>
<path style="fill:#ffe5db; stroke:none;" d="M208 189L209 190L208 189z"/>
<path style="fill:#ffffff; stroke:none;" d="M76 190L77 191L76 190z"/>
<path style="fill:#ffc18c; stroke:none;" d="M77 190L78 191L77 190z"/>
<path style="fill:#ffdec5; stroke:none;" d="M97 190L98 191L97 190z"/>
<path style="fill:#ffe5db; stroke:none;" d="M209 190L210 191L209 190z"/>
<path style="fill:#ffdfc5; stroke:none;" d="M78 191L79 192L78 191z"/>
<path style="fill:#fff8f2; stroke:none;" d="M96 191L97 192L96 191z"/>
<path style="fill:#ffe5db; stroke:none;" d="M210 191L211 192L210 191z"/>
<path style="fill:#ffffff; stroke:none;" d="M79 192L80 193L79 192z"/>
<path style="fill:#ffd9ba; stroke:none;" d="M80 192L81 193L80 192z"/>
<path style="fill:#ffbe8c; stroke:none;" d="M93 192L94 193L93 192z"/>
<path style="fill:#ffebdc; stroke:none;" d="M94 192L95 193L94 192z"/>
<path style="fill:#ffede7; stroke:none;" d="M211 192L212 193L211 192z"/>
<path style="fill:#ffd2ae; stroke:none;" d="M82.6667 193.333C82.2222 193.778 83.2778 193.722 83.3333 193.667C83.7778 193.222 82.7222 193.278 82.6667 193.333z"/>
<path style="fill:#ffb275; stroke:none;" d="M84 193C85.2484 193.685 85.5484 193.749 87 194C85.7517 193.315 85.4516 193.251 84 193M88 193C89.2484 193.685 89.5484 193.749 91 194C89.7517 193.315 89.4516 193.251 88 193z"/>
<path style="fill:#fff8f2; stroke:none;" d="M91.6667 193.333C91.2222 193.778 92.2778 193.722 92.3333 193.667C92.7778 193.222 91.7222 193.278 91.6667 193.333z"/>
<path style="fill:#fff6f2; stroke:none;" d="M212 193L213 194L212 193z"/>
<path style="fill:#fff9f2; stroke:none;" d="M0.333333 194.667C0.277783 194.722 0.222221 195.778 0.666667 195.333C0.722227 195.278 0.777776 194.222 0.333333 194.667z"/>
<path style="fill:#fff6f2; stroke:none;" d="M213 194L214 195L213 194z"/>
<path style="fill:#ffcbb9; stroke:none;" d="M214.333 199.667C214.278 199.722 214.222 200.778 214.667 200.333C214.722 200.278 214.778 199.222 214.333 199.667z"/>
<path style="fill:#ffd4c5; stroke:none;" d="M215 202L216 203L215 202z"/>
<path style="fill:#ffaa8b; stroke:none;" d="M216 203L217 204L216 203M217 204L218 205L217 204z"/>
<path style="fill:#ffbaa2; stroke:none;" d="M218 205L219 206L218 205z"/>
<path style="fill:#e2e7e5; stroke:none;" d="M117 213C118.543 214.267 119.048 214.489 121 215C119.457 213.733 118.952 213.511 117 213z"/>
</svg>
